<svg id="Слой_1" data-name="Слой 1" xmlns="http://www.w3.org/2000/svg" xmlns:xlink="http://www.w3.org/1999/xlink" viewBox="0 0 607.93 607.93"><defs><style>.cls-1{fill:none;clip-rule:evenodd;}.cls-2{clip-path:url(#clip-path);}.cls-3{fill:#000;}</style><clipPath id="clip-path" transform="translate(55.79 53.96)"><path class="cls-1" d="M150.9,395.9a48.63,48.63,0,1,0,48.63,48.63A48.57,48.57,0,0,0,150.9,395.9h0ZM5,6.83V55.46H53.63L141.18,240l-32.83,59.57A47,47,0,0,0,102.27,323a48.78,48.78,0,0,0,48.63,48.63H442.71V323H161.12a6,6,0,0,1-6.08-6.08l0.73-2.92,21.89-39.64H358.82a48.4,48.4,0,0,0,42.56-25L488.43,91.45a23.75,23.75,0,0,0,2.92-11.67A24.39,24.39,0,0,0,467,55.46H107.38L84.52,6.83H5ZM394.08,395.9a48.63,48.63,0,1,0,48.63,48.63,48.57,48.57,0,0,0-48.63-48.63h0Z"/></clipPath></defs><title>корзина</title><g class="cls-2"><rect class="cls-3" width="607.93" height="607.93"/></g></svg>