<svg id="Слой_1" data-name="Слой 1" xmlns="http://www.w3.org/2000/svg" xmlns:xlink="http://www.w3.org/1999/xlink" viewBox="0 0 485.59 342.75"><defs><style>.cls-1{fill:none;clip-rule:evenodd;}.cls-2,.cls-7{fill:#7fb23d;}.cls-2,.cls-3{fill-rule:evenodd;}.cls-3,.cls-4{fill:#fff;}.cls-5{clip-path:url(#clip-path);}.cls-6{fill:#7fb13d;}.cls-7{font-size:97.28px;font-family:Times New Roman;font-weight:700;}.cls-8{letter-spacing:5px;}.cls-9{letter-spacing:-4px;}.cls-10{letter-spacing:7px;}</style><clipPath id="clip-path" transform="translate(-5.68 -91.89)"><path class="cls-1" d="M458.8,378V364.09h2.75l3.09,10.1a14.66,14.66,0,0,0,.69,2.09,9,9,0,0,1,.69-2.44l3.44-9.75h2.41V378h-1.72V366.18L466,378H464.3l-3.78-11.84V378H458.8Zm-8.93,0V365.49H445.4v-1.74h11v1.74h-4.47V378h-2.06Z"/></clipPath></defs><title>logo</title><path class="cls-2" d="M57.35,434.64H204.6c26.87,0,26.87-25.77,26.87-25.77V116.19s0.37-24.3-26.87-24.3H57.35s-25,0-25,23.56V408.87c0,25.77,25,25.77,25,25.77h0Z" transform="translate(-5.68 -91.89)"/><path class="cls-3" d="M57.71,424.7H205c16.56,0,16.2-15.83,16.2-15.83V116.19s0.37-14.36-16.57-14.36H57.35s-15.09,0-15.09,13.62V408.87c0,15.83,15.46,15.83,15.46,15.83h0Z" transform="translate(-5.68 -91.89)"/><path class="cls-2" d="M491.27,374.63s0,25-26.14,25H29.25c-23.56,0-23.56-25-23.56-25v-56c0-27.24,24.3-26.88,24.3-26.88H465.13s26.14,0,26.14,26.88v56h0ZM481,374.26v-56c0-16.57-15.83-16.2-15.83-16.2H30s-14.36-.37-14.36,16.57v56s0,14.73,13.62,14.73H465.13c15.83,0,15.83-15.09,15.83-15.09h0Z" transform="translate(-5.68 -91.89)"/><path class="cls-2" d="M107,157.42c-25-3.68-39,36.45-39,36.45s-3.68,31.29,0,50.8c-0.74-18,1.84-22.45,2.58-26.87,19.88,26.87-1.1,35.34-1.84,43.44-1.11,5.89,9.57,5.89,8.1,20.62,8.47,0,10.31,6.26,19.14,6.26,9.2,0,11.78-3.31,12.88-7s-10.68-5.52-9.57-16.2c1.47-10.68,15.46-7.36,18-24.3C135,256.09,151.59,252,151.59,252s10.68,0.37,18,0c7.36,0,1.47,6.63,1.47,6.63s-11.42-4-14.36,4.42c-1.84,20.62,8.84,21,9.57,22.09,1.1,1.1,7.73,2.95,12.15-2.21,5.15-13.62,15.09-11,19.88-22.46,5.16-11.78,4.42-11.78,12.89-14-0.74,12.15,4.79,21.35,7,30.19,2.21,4.42-2.21,1.84-2.58,8.46,8.47,21.36,27.24,2.95,28,0-15.83-3.68-5.52-22.45-7.36-35.71,12.15-1.47,10.68,6.63,10.68,6.63s12.15,26.14,35.34,24.3c5.16,9.57,14,4.78,14,4.78s1.47-13.62,6.25-16.2c4.79-2.21,35.71-22.46,33.13-40.5-17.67,24.3-33.13,21.35-36.08,18.41-3.31-2.58,6.26-15.83,6.26-15.83s-15.09,4.79-18-.74c-2.57-5.16,13.26-9.57,12.89-27.24-11,10.68-18,7-18,7s-23.2-20.25-41.23-40.87c-18.41-20.62-24.3-17.67-36.45-18s-36.08,12.15-55.22,11.41c-18.77-.37-17.67-1.11-42.71-5.16h0Z" transform="translate(-5.68 -91.89)"/><path class="cls-3" d="M71.7,202.34c-1.47,25.77,13.62,24.3,14.36,40.87-0.37,7-4,14-4,14s5.52-8.47,18-15.83S97.84,209,105.2,192c4,29.82,13.25,40.86,13.25,40.86s18.78,11.41,35.71,9.2c17.3-2.58,15.83-5.89,19.88-10.31-6.63-14,1.84-20.62,1.84-20.62s-0.74,3.68,2.21,9.2c2.58-8.1,7.73-7.36,7.73-7.36s-11.41,21.35-8.47,44.92c-1.47,8.1-8.47,6.63-14.73,6.26-5.15,11.41,7.73,15.83,7.73,15.83a31.83,31.83,0,0,1-.74-7c5.89,4.42,11,1.11,11,1.11s-9.2-6.26-5.15-11.79c4.05-.73,2.58,7,11.41,2.58,8.84-4.79,4.79-9.94,8.47-15.83,3.31-6.26,9.94-2.95,14.36-5.89,4.78-2.58,5.52-11.41,11.78-12.88,11.78,19.14,21,10.31,28.72,14.73,2.94,0.37,0,8.1,5.15,14,7.73,11,26.14,9.94,26.14,9.94s8.83-2.21,12.88-10.31c17.67,1.47,23.93-9.57,28.72-16.2-27.25,20.61-34.61,4-34.61,4s-3.31-5.52,7.73-11.78c-18.41,8.84-15.46-5.52-15.46-5.52s-0.73-9.2,11-16.57c-7.73,1.84-9.2,0-12.88-2.21-3.68-1.84-25-30.19-39.76-40.13s-17.3-11.78-26.14-14c-21-5.52-31.29,12.15-61.85,12.15-14.73-.37-39.76-5.15-39.76-5.15s-32-2.58-39.76,39h0Z" transform="translate(-5.68 -91.89)"/><path class="cls-3" d="M100.05,281.86c-9.57-.74-11.41-12.52-11.41-12.52S85,289.22,100.05,281.86h0Z" transform="translate(-5.68 -91.89)"/><path class="cls-3" d="M229.64,258.66c-9.2,4.42-8.47,11.41-8.47,11.41s2.94,1.84,2.94,9.21v7.36s5.16,3.69,12.15-1.47c0,0-9.2-8.1-6.63-26.5h0Z" transform="translate(-5.68 -91.89)"/><path class="cls-2" d="M261.3,195c-12.89,0-11.41,14.73-11.41,14.73s3.68,14.73,11.41,12.89c-4.79-9.57-.37-12.15-0.37-12.15s7,1.84,3.68,10.31c2.58,0.37,2.58,2.21,2.58,2.21a12.65,12.65,0,0,1-14.73.37C255,234,262.4,234,262.4,234s8.1-.74,10.31-11.41c-2.58.37-.37,0-3.68-1.84,4.79-12.15-5.52-12.52-5.52-12.52s2.21-8.84-2.21-13.25h0Z" transform="translate(-5.68 -91.89)"/><path class="cls-2" d="M269,241.36c-1.1,3.31-1.84,0-5.52.74,8.1,8.47,5.52,10.31,5.52,10.31s5.52,3.68,9.2-3.68c5.52-11.41-9.2-12.15-9.2-12.15s0.74,1.47,0,4.79h0Z" transform="translate(-5.68 -91.89)"/><path class="cls-3" d="M275.29,247.25a1,1,0,0,0,1.1-1.11,1.11,1.11,0,0,0-2.21,0,1,1,0,0,0,1.11,1.11h0Z" transform="translate(-5.68 -91.89)"/><rect class="cls-4" x="24.3" y="210.21" width="206.28" height="87.42"/><g class="cls-5"><rect class="cls-6" x="424.66" y="256.8" width="56.57" height="44.4"/></g><text class="cls-7" transform="translate(24.51 286.84)">Х<tspan class="cls-8" x="71.15" y="0">О</tspan><tspan class="cls-9" x="152.65" y="0">Г</tspan><tspan class="cls-8" x="209.79" y="0">А</tspan><tspan class="cls-10" x="285.87" y="0">Р</tspan><tspan class="cls-8" x="352.32" y="0">Т</tspan></text></svg>