<svg id="Слой_1" data-name="Слой 1" xmlns="http://www.w3.org/2000/svg" xmlns:xlink="http://www.w3.org/1999/xlink" viewBox="0 0 619.13 583.17"><defs><style>.cls-1{fill:none;clip-rule:evenodd;}.cls-2{clip-path:url(#clip-path);}.cls-3{fill:#7fb13d;}.cls-4{clip-path:url(#clip-path-2);}.cls-5{clip-path:url(#clip-path-3);}</style><clipPath id="clip-path" transform="translate(59.56 40.66)"><path class="cls-1" d="M413.79,53.27A34.53,34.53,0,0,0,379.31,18.9H120.69A34.53,34.53,0,0,0,86.21,53.27V156.39H413.79V53.27h0Z"/></clipPath><clipPath id="clip-path-2" transform="translate(59.56 40.66)"><path class="cls-1" d="M448.28,173.58H51.72C22.41,173.58,0,195.92,0,225.14V379.82C0,409,22.41,431.38,51.72,431.38H69V293.88H431V431.38h17.24c29.31,0,51.72-22.34,51.72-51.56V225.14c0-29.22-22.41-51.56-51.72-51.56h0Zm-51.72,85.93c-10.34,0-17.24-6.88-17.24-17.19s6.9-17.19,17.24-17.19,17.24,6.87,17.24,17.19-6.9,17.19-17.24,17.19h0Z"/></clipPath><clipPath id="clip-path-3" transform="translate(59.56 40.66)"><path class="cls-1" d="M86.21,448.57a34.53,34.53,0,0,0,34.48,34.37H379.31a34.53,34.53,0,0,0,34.48-34.37V311.07H86.21V448.57h0Zm34.48-85.93H379.31v17.19H120.69V362.63h0Zm0,51.56H379.31v17.19H120.69V414.19h0Z"/></clipPath></defs><title>принтер</title><g class="cls-2"><rect class="cls-3" x="86.21" width="446.71" height="256.62"/></g><g class="cls-4"><rect class="cls-3" y="154.68" width="619.13" height="376.93"/></g><g class="cls-5"><rect class="cls-3" x="86.21" y="292.17" width="446.71" height="290.99"/></g></svg>