<svg id="Слой_1" data-name="Слой 1" xmlns="http://www.w3.org/2000/svg" xmlns:xlink="http://www.w3.org/1999/xlink" viewBox="0 0 546.44 604.57"><defs><style>.cls-1{fill:none;clip-rule:evenodd;}.cls-2{clip-path:url(#clip-path);}.cls-3{fill:#7fb13d;}.cls-4{clip-path:url(#clip-path-2);}</style><clipPath id="clip-path" transform="translate(13.25 50.65)"><path class="cls-1" d="M471.55,244l-81.94-71.21a10.39,10.39,0,0,0-11-1.61,10.15,10.15,0,0,0-6,9.26v30.52H260a10.21,10.21,0,0,0-10.24,10.17v61A10.21,10.21,0,0,0,260,292.33H372.63v30.52a10.18,10.18,0,0,0,6,9.26,10.33,10.33,0,0,0,4.24.92,10.2,10.2,0,0,0,6.74-2.52l81.94-71.21a10.11,10.11,0,0,0,0-15.3h0Z"/></clipPath><clipPath id="clip-path-2" transform="translate(13.25 50.65)"><path class="cls-1" d="M341.9,312.67H260a30.66,30.66,0,0,1-30.73-30.52v-61A30.66,30.66,0,0,1,260,190.59H341.9a10.21,10.21,0,0,0,10.24-10.17V38A30.66,30.66,0,0,0,321.42,7.48H75.6A30.66,30.66,0,0,0,44.88,38V465.27A30.66,30.66,0,0,0,75.6,495.79H321.42a30.66,30.66,0,0,0,30.73-30.52V322.84a10.21,10.21,0,0,0-10.24-10.17h0Z"/></clipPath></defs><title>vhod</title><g class="cls-2"><rect class="cls-3" x="204.84" y="162.79" width="341.59" height="279.01"/></g><g class="cls-4"><rect class="cls-3" width="423.53" height="604.57"/></g></svg>