<svg id="Слой_1" data-name="Слой 1" xmlns="http://www.w3.org/2000/svg" xmlns:xlink="http://www.w3.org/1999/xlink" viewBox="0 0 575.69 585.97"><defs><style>.cls-1,.cls-2{fill:none;}.cls-1{clip-rule:evenodd;}.cls-3{clip-path:url(#clip-path);}.cls-4{fill:#7fb13d;}.cls-5{clip-path:url(#clip-path-2);}.cls-6{clip-path:url(#clip-path-3);}</style><clipPath id="clip-path" transform="translate(37.74 38.65)"><polygon class="cls-1" points="339.18 8.66 303.55 8.66 303.55 264.46 9.57 264.46 9.57 293.89 339.18 293.89 339.18 8.66 339.18 8.66"/></clipPath><clipPath id="clip-path-2" transform="translate(37.74 38.65)"><path class="cls-1" d="M357,71.06V285h37.86v43.28a16,16,0,0,1-16,16H338.39c0.48-1.37.7-2.12,0.7-2.12a147.78,147.78,0,0,0,5.45-39.38H9.57C9.57,451.55,124,500,124,500H224.2V462.69l9.6-18.43H234c3-.89,6.09-1.69,9-2.8,40.32-15.36,65.09-42.9,79.36-65.09h56.52a48.14,48.14,0,0,0,48.07-48.1V285h37L490.64,71.07H357Z"/></clipPath><clipPath id="clip-path-3" transform="translate(37.74 38.65)"><rect class="cls-2" x="356.99" y="35.4" width="133.62" height="26.73"/></clipPath></defs><title>1</title><g class="cls-3"><rect class="cls-4" width="424.23" height="379.86"/></g><g class="cls-5"><rect class="cls-4" y="62.41" width="575.69" height="523.56"/></g><g class="cls-6"><rect class="cls-4" x="347.42" y="26.74" width="228.24" height="121.36"/></g></svg>