<svg id="Слой_1" data-name="Слой 1" xmlns="http://www.w3.org/2000/svg" xmlns:xlink="http://www.w3.org/1999/xlink" viewBox="0 0 479.62 598.16"><defs><style>.cls-1{fill:none;clip-rule:evenodd;}.cls-2{clip-path:url(#clip-path);}.cls-3{fill:#7fb13d;}.cls-4{clip-path:url(#clip-path-2);}.cls-5{clip-path:url(#clip-path-3);}</style><clipPath id="clip-path" transform="translate(10.07 47.96)"><path class="cls-1" d="M229.75,199.36c52.76,0,95.68-43.49,95.68-97s-42.92-97-95.68-97-95.68,43.49-95.68,97,42.92,97,95.68,97h0Z"/></clipPath><clipPath id="clip-path-2" transform="translate(10.07 47.96)"><path class="cls-1" d="M358.14,246.35l-0.16-.05c-12.46-3.08-50.61-8.49-50.61-8.49a8.45,8.45,0,0,0-10.46,5.27L239.49,402.74a10.32,10.32,0,0,1-19.48,0L162.59,243.08a8.49,8.49,0,0,0-8-5.66c-0.82,0-40,5.57-53.11,8.86-35.68,9-58.19,44.55-58.19,81.61V460.74a35.81,35.81,0,0,0,35.57,36H380.57a35.81,35.81,0,0,0,35.57-36V327.45c0-36.9-23.39-69.64-58-81.1h0Z"/></clipPath><clipPath id="clip-path-3" transform="translate(10.07 47.96)"><path class="cls-1" d="M251.41,234.76a12.12,12.12,0,0,0-9-3.8H217.1a11.85,11.85,0,0,0-10.58,17.8L220,269.4l-6.33,54.08,12.46,33.58a3.78,3.78,0,0,0,7.14,0l12.46-33.58-6.33-54.08L253,248.76a12,12,0,0,0-1.55-14h0Z"/></clipPath></defs><title>men3</title><g class="cls-2"><rect class="cls-3" x="90.74" width="298.17" height="300.73"/></g><g class="cls-4"><rect class="cls-3" y="231.98" width="479.62" height="366.18"/></g><g class="cls-5"><rect class="cls-3" x="161.62" y="225.51" width="156.38" height="235.46"/></g></svg>