<svg id="Слой_1" data-name="Слой 1" xmlns="http://www.w3.org/2000/svg" xmlns:xlink="http://www.w3.org/1999/xlink" viewBox="0 0 598.51 598.51"><defs><style>.cls-1{fill:none;clip-rule:evenodd;}.cls-2{clip-path:url(#clip-path);}.cls-3{fill:#7fb13d;}</style><clipPath id="clip-path" transform="translate(48.09 47.3)"><path class="cls-1" d="M251.16,8.11A243.84,243.84,0,1,0,495,252,243.13,243.13,0,0,0,251.16,8.11h0ZM162.5,351.7c0,6.65-4.43,11.08-11.08,11.08H129.25c-6.65,0-11.08-4.43-11.08-11.08V329.53c0-6.65,4.43-11.08,11.08-11.08h22.17c6.65,0,11.08,4.43,11.08,11.08V351.7h0Zm0-88.67c0,6.65-4.43,11.08-11.08,11.08H129.25c-6.65,0-11.08-4.43-11.08-11.08V240.87c0-6.65,4.43-11.08,11.08-11.08h22.17c6.65,0,11.08,4.43,11.08,11.08V263h0Zm0-88.67c0,6.65-4.43,11.08-11.08,11.08H129.25c-6.65,0-11.08-4.43-11.08-11.08V152.2c0-6.65,4.43-11.08,11.08-11.08h22.17c6.65,0,11.08,4.43,11.08,11.08v22.17h0ZM384.17,351.7c0,6.65-4.43,11.08-11.08,11.08H217.91c-6.65,0-11.08-4.43-11.08-11.08V329.53c0-6.65,4.43-11.08,11.08-11.08H373.08c6.65,0,11.08,4.43,11.08,11.08V351.7h0Zm0-88.67c0,6.65-4.43,11.08-11.08,11.08H217.91c-6.65,0-11.08-4.43-11.08-11.08V240.87c0-6.65,4.43-11.08,11.08-11.08H373.08c6.65,0,11.08,4.43,11.08,11.08V263h0Zm0-88.67c0,6.65-4.43,11.08-11.08,11.08H217.91c-6.65,0-11.08-4.43-11.08-11.08V152.2c0-6.65,4.43-11.08,11.08-11.08H373.08c6.65,0,11.08,4.43,11.08,11.08v22.17h0Z"/></clipPath></defs><title>menu1</title><g class="cls-2"><rect class="cls-3" width="598.51" height="598.51"/></g></svg>