<svg id="Слой_1" data-name="Слой 1" xmlns="http://www.w3.org/2000/svg" xmlns:xlink="http://www.w3.org/1999/xlink" viewBox="0 0 618.03 618.03"><defs><style>.cls-1{fill:none;clip-rule:evenodd;}.cls-2{clip-path:url(#clip-path);}.cls-3{fill:#7fb13d;}</style><clipPath id="clip-path" transform="translate(58.18 59.73)"><path class="cls-1" d="M9,61.18V437.37a53.73,53.73,0,0,0,53.74,53.74H438.93a53.9,53.9,0,0,0,53.74-53.74V61.18A53.9,53.9,0,0,0,438.93,7.44H62.74A53.73,53.73,0,0,0,9,61.18H9ZM331.45,168.67a80.61,80.61,0,1,1-80.61-80.61,80.5,80.5,0,0,1,80.61,80.61h0Zm-241.84,215c0-53.74,107.48-83.3,161.22-83.3s161.22,29.56,161.22,83.3V410.5H89.61V383.63h0Z"/></clipPath></defs><title>men2</title><g class="cls-2"><rect class="cls-3" width="618.03" height="618.03"/></g></svg>