<svg id="Слой_1" data-name="Слой 1" xmlns="http://www.w3.org/2000/svg" xmlns:xlink="http://www.w3.org/1999/xlink" viewBox="0 0 460.1 600.66"><defs><style>.cls-1{fill:none;clip-rule:evenodd;}.cls-2{clip-path:url(#clip-path);}.cls-3{fill:#7fb13d;}.cls-4{clip-path:url(#clip-path-2);}</style><clipPath id="clip-path" transform="translate(-24.63 50.22)"><path class="cls-1" d="M338.18,131.83h91.9L319.8,4.44V113.63c0,10.92,9.19,18.2,18.38,18.2h0Z"/></clipPath><clipPath id="clip-path-2" transform="translate(-24.63 50.22)"><path class="cls-1" d="M299.86,113.63V4.44H116.05c-20.22,0-36.76,16.38-36.76,36.4V459.39c0,20,16.54,36.4,36.76,36.4h275.7c20.22,0,36.76-16.38,36.76-36.4V150h-91.9c-20.22,0-36.76-16.38-36.76-36.4h0ZM134.43,77.23H263.1v18.2H134.43V77.23h0Zm0,54.59H263.1V150H134.43v-18.2h0ZM373.38,423H134.43V404.8H373.38V423h0Zm0-54.59H134.43V350.2H373.38v18.2h0Zm0-54.59H134.43v-18.2H373.38v18.2h0Zm0-54.59H134.43V241H373.38v18.2h0Zm0-54.59H134.43v-18.2H373.38v18.2h0Z"/></clipPath></defs><title>list</title><g class="cls-2"><rect class="cls-3" x="240.5" width="219.6" height="236.7"/></g><g class="cls-4"><rect class="cls-3" width="458.54" height="600.66"/></g></svg>