<svg id="Layer_1" data-name="Layer 1" xmlns="http://www.w3.org/2000/svg" viewBox="0 0 165.41 50.1"><defs><style>.cls-1{opacity:0.16;}.cls-2{fill:#221f1f;}</style></defs><title>Artboard 1</title><g class="cls-1"><path class="cls-2" d="M42.16,1.66l-.81,1.12A6.42,6.42,0,0,0,35.75,0C24.58,0,16.46,17.49,16.19,31.8,7.4,31.53,3.54,26,3.54,21c0-4.17,2.65-7.94,7.4-7.94a6,6,0,0,1,3.5,1l2.38-3.9A7,7,0,0,0,12.74,9C4.53,9,0,14.89,0,21c0,6.5,5.11,13.23,16.24,13.5.49,8.66,4.22,15.61,12.42,15.61,13.59,0,20.9-16.82,20.9-30.86C49.56,11.21,47.14,4.13,42.16,1.66Zm-6.59.58C37.9,2.24,39,4.35,39,7.45c0,7.71-6.86,21.53-18.52,24C21,18.34,27.36,2.24,35.57,2.24ZM28.88,47.86c-5.7,0-8.16-6-8.39-13.59C35,32.29,43,18.52,43,9.06a12,12,0,0,0-1.12-5.43c2.51,3,3.63,8.21,3.63,13.9C45.52,31.08,39.07,47.86,28.88,47.86Z"/><path class="cls-2" d="M77.19,29c-1.44,3.72-2.78,6.28-3.81,6.28-.31,0-.45-.36-.45-1.3a63.81,63.81,0,0,1,1.21-9.1C76.07,17.4,77.68,8.21,77.86,4.4H74.32L71.18,21.8c-.31-2-1.26-3-2.92-3-3.12,0-5.79,5-7,10.18h0c-1.93,5-3.63,7.76-5.07,7.76-1,0-1.7-.94-1.7-3.95a46.08,46.08,0,0,1,.36-5.11A38.54,38.54,0,0,0,61.49,15.2,26.57,26.57,0,0,0,62.84,8c0-2.29-.67-4.17-3-4.17-2.6,0-5.43,5.07-7.45,16.33A78.56,78.56,0,0,0,51,32.83c0,4.66,1.08,7.31,3.77,7.31,2.25,0,4-2,5.88-6.22,0,.18,0,.35,0,.52,0,3.23.9,5.7,3.09,5.7,2.56,0,4.13-2.38,5.16-5.11v.49c0,3.09.81,4.4,2.24,4.4,2.06,0,4.62-3.14,7.36-10.32C78.45,29.33,77.46,29,77.19,29ZM60.42,6.82c.22,0,.45.36.45,1,0,5.47-3.36,13-5.61,17C56.56,16.51,59.21,6.82,60.42,6.82Zm4.84,29.51c-.63,0-.9-.94-.9-2.33,0-4,2.2-12,4.13-12,1,0,1.39,1.17,1.39,2.83C69.88,29,67.32,36.33,65.26,36.33Z"/><path class="cls-2" d="M163.84,29c-1.93,5-3.63,7.76-5.07,7.76-1,0-1.7-.94-1.7-3.95a46,46,0,0,1,.36-5.11,38.54,38.54,0,0,0,6.64-12.47A26.56,26.56,0,0,0,165.41,8c0-2.29-.67-4.17-3-4.17-2.6,0-5.43,5.07-7.45,16.33-.58,3.31-1,6.27-1.24,8.84h0a6.28,6.28,0,0,1-3,3.77,23.49,23.49,0,0,0,1.12-6.46c0-4-1.57-7.49-4.57-7.49-3.18,0-5.07,3-5.56,6.46l-1.61-.4A27.18,27.18,0,0,0,139,29a6.26,6.26,0,0,1-3,3.72,23.49,23.49,0,0,0,1.12-6.46c0-4-1.57-7.49-4.57-7.49-3.18,0-5.07,3-5.56,6.46l-1.61-.4A27.22,27.22,0,0,0,124.26,29c-2,5.12-3.44,7.61-4.6,7.61-.4,0-.9-.22-.9-1.52,0-3.68,2.92-9,2.92-13.19,0-2.15-1-3.18-2.6-3.18-1.93,0-3.77,1.39-5.25,3.63.18-.85.36-1.66.49-2.47,2.78-3.41,6.64-9.55,6.64-13.19,0-1.7-.85-2.83-3.09-2.83a4.26,4.26,0,0,0-3.77,2.78c-1.7,3.85-3.51,13.45-5,22.38-2,4.87-4.37,7.26-6.51,7.26S99.39,34,99.39,31.17c0-4.26,2-9.6,4.35-9.6.63,0,.9.63.9,1.57A10.72,10.72,0,0,1,103.16,28L106,29.51a15,15,0,0,0,1.48-6.05c0-2.6-1-4.66-3.59-4.66C99,18.79,95.9,26,95.81,32c-.3.62-.61,1.21-.95,1.75v-.18c0-3.36-2-7.09-3.54-9.91a7.07,7.07,0,0,1-.94-2.78,71.83,71.83,0,0,0,1.84-7.27L88.63,13a19.35,19.35,0,0,0-1,6.06,17.71,17.71,0,0,0,.54,4.44c-1.75,4.49-4.13,10-6.91,15.7l1.26.63A124.83,124.83,0,0,0,88.76,25.7c1,3,2.2,5.65,2.2,8.34,0,1.61-.63,2.42-1.75,2.42-.85,0-1.39-.36-2-1.35l-2.74,2a4.55,4.55,0,0,0,4.44,3A5.46,5.46,0,0,0,93.65,38l.22-.27a26.07,26.07,0,0,0,2.1-3.1c.48,3.16,2,5.53,4.86,5.53s5.13-2.4,6.86-5.1a18.48,18.48,0,0,0-.36,3.44,10.9,10.9,0,0,0,0,1.21H111C112.67,26.33,115.09,22,117,22c.49,0,.72.4.72.9,0,3.23-2.92,8.21-2.92,13.05,0,2.74,1.48,4,3,4,2.71,0,4.52-2.82,6.07-6.35.15,3.73,1.52,6.58,4.43,6.58s5.16-1.93,6.68-5.2a8.38,8.38,0,0,0,3.6-2.58c0,.16,0,.32,0,.48,0,4.08,1.35,7.31,4.44,7.31,2.87,0,5.16-1.93,6.68-5.2a8.45,8.45,0,0,0,3.78-2.81c0,.24,0,.48,0,.7,0,4.66,1.08,7.31,3.77,7.31,2.92,0,5-3.36,7.63-10.54v0C164.92,29.33,164.07,29,163.84,29ZM163,6.82c.22,0,.45.36.45,1,0,5.47-3.36,13-5.61,17C159.14,16.51,161.78,6.82,163,6.82Zm-44.9,0c.22,0,.4.22.4.63,0,2.29-2.06,6.28-3.32,8.7C116.8,8.7,117.38,6.82,118.1,6.82Zm11.21,29.87a1,1,0,0,1-.36,0c-1.12,0-1.84-1.84-1.84-4.49a14.92,14.92,0,0,1,.13-1.93A6.67,6.67,0,0,0,131,35,3.56,3.56,0,0,1,129.31,36.69Zm2.6-3.59c-2-.58-2.74-2.92-2.74-5.34,0-2.87,1-5.79,2.33-6.05.09,0,.22,0,.31,0,1.26,0,1.75,1.53,1.75,3.54A22.63,22.63,0,0,1,131.91,33.1ZM144,36.69a1,1,0,0,1-.36,0c-1.12,0-1.84-1.84-1.84-4.49a15,15,0,0,1,.13-1.93A6.67,6.67,0,0,0,145.68,35,3.56,3.56,0,0,1,144,36.69Zm2.6-3.59c-2-.58-2.74-2.92-2.74-5.34,0-2.87,1-5.79,2.33-6.05.09,0,.22,0,.31,0,1.26,0,1.75,1.53,1.75,3.54A22.63,22.63,0,0,1,146.62,33.1Z"/></g></svg>