<?xml version="1.0" encoding="utf-8"?>
<!-- Generator: Adobe Illustrator 21.0.0, SVG Export Plug-In . SVG Version: 6.00 Build 0)  -->
<svg version="1.1" id="Layer_1" xmlns="http://www.w3.org/2000/svg" xmlns:xlink="http://www.w3.org/1999/xlink" x="0px" y="0px"
	 viewBox="0 0 165.4 50.1" style="enable-background:new 0 0 165.4 50.1;" xml:space="preserve">
<style type="text/css">
	.st0{opacity:0.35;}
	.st1{fill:#221F1F;}
</style>
<g class="st0">
	<path class="st1" d="M42.2,1.7l-0.8,1.1C40.1,1,38.3,0,35.7,0C24.6,0,16.5,17.5,16.2,31.8C7.4,31.5,3.5,26,3.5,21
		c0-4.2,2.6-7.9,7.4-7.9c1.3,0,2.5,0.3,3.5,1l2.4-3.9C15.5,9.3,14.4,9,12.7,9C4.5,9,0,14.9,0,21c0,6.5,5.1,13.2,16.2,13.5
		c0.5,8.7,4.2,15.6,12.4,15.6c13.6,0,20.9-16.8,20.9-30.9C49.6,11.2,47.1,4.1,42.2,1.7z M35.6,2.2c2.3,0,3.5,2.1,3.5,5.2
		c0,7.7-6.9,21.5-18.5,24C21,18.3,27.4,2.2,35.6,2.2z M28.9,47.9c-5.7,0-8.2-6-8.4-13.6C35,32.3,43,18.5,43,9.1
		c0-2.1-0.4-3.9-1.1-5.4c2.5,3,3.6,8.2,3.6,13.9C45.5,31.1,39.1,47.9,28.9,47.9z"/>
	<path class="st1" d="M77.2,29c-1.4,3.7-2.8,6.3-3.8,6.3c-0.3,0-0.4-0.4-0.4-1.3c0-1.5,0.4-4.3,1.2-9.1c1.9-7.4,3.5-16.6,3.7-20.5
		h-3.5l-3.1,17.4c-0.3-2-1.3-3-2.9-3c-3.1,0-5.8,5-7,10.2c0,0,0,0,0,0c-1.9,5-3.6,7.8-5.1,7.8c-1,0-1.7-0.9-1.7-3.9
		c0-1.4,0.1-3.2,0.4-5.1c1.8-2.2,4.8-6.6,6.6-12.5c0.4-1.4,1.3-4.6,1.3-7.2c0-2.3-0.7-4.2-3-4.2c-2.6,0-5.4,5.1-7.4,16.3
		c-0.9,5.1-1.4,9.4-1.4,12.7c0,4.7,1.1,7.3,3.8,7.3c2.2,0,4-2,5.9-6.2c0,0.2,0,0.4,0,0.5c0,3.2,0.9,5.7,3.1,5.7
		c2.6,0,4.1-2.4,5.2-5.1c0,0.2,0,0.4,0,0.5c0,3.1,0.8,4.4,2.2,4.4c2.1,0,4.6-3.1,7.4-10.3C78.4,29.3,77.5,29,77.2,29z M60.4,6.8
		c0.2,0,0.4,0.4,0.4,1c0,5.5-3.4,13-5.6,17C56.6,16.5,59.2,6.8,60.4,6.8z M65.3,36.3c-0.6,0-0.9-0.9-0.9-2.3c0-4,2.2-12,4.1-12
		c1,0,1.4,1.2,1.4,2.8C69.9,29,67.3,36.3,65.3,36.3z"/>
	<path class="st1" d="M163.8,29c-1.9,5-3.6,7.8-5.1,7.8c-1,0-1.7-0.9-1.7-3.9c0-1.4,0.1-3.2,0.4-5.1c1.8-2.2,4.8-6.6,6.6-12.5
		c0.4-1.4,1.3-4.6,1.3-7.2c0-2.3-0.7-4.2-3-4.2c-2.6,0-5.4,5.1-7.4,16.3c-0.6,3.3-1,6.3-1.2,8.8c0,0,0,0,0,0c-0.8,2.1-1.9,3.2-3,3.8
		c0.6-2,1.1-4.3,1.1-6.5c0-4-1.6-7.5-4.6-7.5c-3.2,0-5.1,3-5.6,6.5l-1.6-0.4c-0.5,1.4-0.8,2.8-1.1,4.2c-0.8,2.1-1.9,3.2-3,3.7
		c0.6-2,1.1-4.3,1.1-6.5c0-4-1.6-7.5-4.6-7.5c-3.2,0-5.1,3-5.6,6.5l-1.6-0.4c-0.5,1.4-0.8,2.8-1.1,4.2c-2,5.1-3.4,7.6-4.6,7.6
		c-0.4,0-0.9-0.2-0.9-1.5c0-3.7,2.9-9,2.9-13.2c0-2.2-1-3.2-2.6-3.2c-1.9,0-3.8,1.4-5.2,3.6c0.2-0.9,0.4-1.7,0.5-2.5
		c2.8-3.4,6.6-9.6,6.6-13.2c0-1.7-0.9-2.8-3.1-2.8c-1.3,0-2.9,0.9-3.8,2.8c-1.7,3.9-3.5,13.4-5,22.4c-2,4.9-4.4,7.3-6.5,7.3
		c-2.3,0-3.2-2.3-3.2-5.2c0-4.3,2-9.6,4.4-9.6c0.6,0,0.9,0.6,0.9,1.6c0,1.3-0.6,3.3-1.5,4.8l2.9,1.5c0.9-1.9,1.5-4.1,1.5-6.1
		c0-2.6-1-4.7-3.6-4.7c-4.9,0-8,7.2-8.1,13.2c-0.3,0.6-0.6,1.2-0.9,1.8v-0.2c0-3.4-2-7.1-3.5-9.9c-0.5-0.9-0.8-1.8-0.9-2.8
		c0.8-2.5,1.4-4.9,1.8-7.3L88.6,13c-0.7,2.2-1,4.2-1,6.1c0,1.6,0.2,3,0.5,4.4c-1.7,4.5-4.1,10-6.9,15.7l1.3,0.6
		c2.6-5.1,4.7-9.8,6.2-14.1c1,3,2.2,5.7,2.2,8.3c0,1.6-0.6,2.4-1.7,2.4c-0.9,0-1.4-0.4-2-1.3l-2.7,2c0.6,1.8,2.3,3,4.4,3
		c2,0,3.7-0.7,4.7-2.2l0.2-0.3c0.7-0.9,1.4-2,2.1-3.1c0.5,3.2,2,5.5,4.9,5.5c2.8,0,5.1-2.4,6.9-5.1c-0.2,1.1-0.4,2.3-0.4,3.4
		c0,0.4,0,0.8,0,1.2h3.6c1.7-13.4,4.1-17.7,6-17.7c0.5,0,0.7,0.4,0.7,0.9c0,3.2-2.9,8.2-2.9,13.1c0,2.7,1.5,4,3,4
		c2.7,0,4.5-2.8,6.1-6.4c0.2,3.7,1.5,6.6,4.4,6.6c2.9,0,5.2-1.9,6.7-5.2c1.3-0.5,2.6-1.4,3.6-2.6c0,0.2,0,0.3,0,0.5
		c0,4.1,1.3,7.3,4.4,7.3c2.9,0,5.2-1.9,6.7-5.2c1.4-0.5,2.7-1.5,3.8-2.8c0,0.2,0,0.5,0,0.7c0,4.7,1.1,7.3,3.8,7.3
		c2.9,0,5-3.4,7.6-10.5c0,0,0,0,0,0C164.9,29.3,164.1,29,163.8,29z M163,6.8c0.2,0,0.4,0.4,0.4,1c0,5.5-3.4,13-5.6,17
		C159.1,16.5,161.8,6.8,163,6.8z M118.1,6.8c0.2,0,0.4,0.2,0.4,0.6c0,2.3-2.1,6.3-3.3,8.7C116.8,8.7,117.4,6.8,118.1,6.8z
		 M129.3,36.7c-0.1,0-0.2,0-0.4,0c-1.1,0-1.8-1.8-1.8-4.5c0-0.6,0-1.3,0.1-1.9c0.6,2.2,1.8,3.9,3.7,4.7
		C130.4,35.9,129.9,36.5,129.3,36.7z M131.9,33.1c-2-0.6-2.7-2.9-2.7-5.3c0-2.9,1-5.8,2.3-6.1c0.1,0,0.2,0,0.3,0
		c1.3,0,1.7,1.5,1.7,3.5C133.6,27.6,132.9,30.7,131.9,33.1z M144,36.7c-0.1,0-0.2,0-0.4,0c-1.1,0-1.8-1.8-1.8-4.5
		c0-0.6,0-1.3,0.1-1.9c0.6,2.2,1.8,3.9,3.7,4.7C145.1,35.9,144.6,36.5,144,36.7z M146.6,33.1c-2-0.6-2.7-2.9-2.7-5.3
		c0-2.9,1-5.8,2.3-6.1c0.1,0,0.2,0,0.3,0c1.3,0,1.7,1.5,1.7,3.5C148.3,27.6,147.6,30.7,146.6,33.1z"/>
</g>
</svg>
