<?xml version="1.0" encoding="utf-8"?>
<!-- Generator: Adobe Illustrator 19.2.1, SVG Export Plug-In . SVG Version: 6.00 Build 0)  -->
<svg version="1.1" id="Слой_1" xmlns="http://www.w3.org/2000/svg" xmlns:xlink="http://www.w3.org/1999/xlink" x="0px" y="0px"
	 viewBox="0 0 141.7 92.4" style="enable-background:new 0 0 141.7 92.4;" xml:space="preserve">
<style type="text/css">
	.st0{fill-rule:evenodd;clip-rule:evenodd;fill:#2C2432;}
	.st1{fill-rule:evenodd;clip-rule:evenodd;fill:#2C2432;stroke:#000000;stroke-width:0.4013;}
</style>
<g>
	<path class="st0" d="M103.9,77.3v-0.8c0.1,0,0.3,0,0.4,0h0.3v0.8H103.9z M103.9,68.7v-1.3c0.5-0.1,1-0.4,1.2-0.7
		c0.5-0.7,0.8-1.7,0.8-3.2c0-1.4-0.3-2.4-0.9-3.1c-0.3-0.4-0.7-0.7-1.2-0.8v-1.3c2.1,0.1,3.8,0.6,4.9,1.3c1.4,0.9,2.1,2.2,2.1,3.9
		c0,1.8-0.7,3.1-2.1,4C107.5,68.3,105.7,68.6,103.9,68.7z M119.2,74.2V59.4h-0.1c-1.6,0-2.9,0.4-3.8,1.2c-0.9,0.8-1.4,2-1.6,3.6h-1
		v-3v-2.9h8.9h8.9v2.9v3h-0.8c-0.2-1.6-0.7-2.8-1.7-3.6c-0.9-0.8-2.2-1.2-3.8-1.2H124v14.8c0,0.8,0.2,1.4,0.6,1.8
		c0.4,0.3,1,0.5,1.9,0.5h0.3v0.8h-5h-5v-0.8h0.3c0.8,0,1.4-0.1,1.8-0.5C119,75.6,119.2,75,119.2,74.2z M103.9,58.3v1.3
		c-0.4-0.1-0.9-0.2-1.4-0.2c-0.8,0-0.6,0.6-0.6,1.4v6.9c0.6,0,1.3,0,2-0.2v1.3c-0.7,0.1-1.4,0.1-2,0.1l0,0v5.4
		c0,0.8,0.2,1.4,0.6,1.8c0.3,0.3,0.8,0.4,1.4,0.5v0.8h-4.4h-5.1v-0.8h0.3c0.9,0,1.5-0.1,1.9-0.5c0.4-0.3,0.6-0.9,0.6-1.7v-13
		c0-0.8-0.2-1.4-0.6-1.7c-0.4-0.3-1-0.5-1.9-0.5h-0.3v-0.8h5.1h3C103,58.2,103.5,58.2,103.9,58.3z M81.2,71.7v-1.3H84l-2.7-6.2v-3.4
		l1.3-3.1h0.4h0.4l7.5,16.4c0.4,0.8,0.7,1.4,1.1,1.8c0.4,0.3,0.8,0.5,1.3,0.5h0.1v0.8h-4.8h-4.8v-0.8h0.3c0.9,0,1.5-0.2,1.8-0.5
		c0.3-0.4,0.2-0.9-0.1-1.7l-1.1-2.5H81.2z M81.2,60.8v3.4L81.1,64l-2.7,6.4h2.8v1.3H78l-1,2.5c-0.3,0.7-0.3,1.3,0,1.6
		c0.3,0.3,1,0.5,2,0.7h0.3v0.8h-3.1h-3.1v-0.8h0.1c0.5,0,0.9-0.2,1.2-0.5c0.3-0.3,0.7-0.9,1-1.7L81.2,60.8z M42.7,77.6v-1.1
		c1.7,0,3.1-0.8,4.1-2.3c0.9-1.5,1.4-3.7,1.4-6.4c0-2.8-0.5-4.9-1.4-6.5c-1-1.5-2.3-2.3-4.1-2.3v-1.2c3,0,5.5,1,7.5,2.8
		c2,1.9,3,4.2,3,7.1c0,2.8-1,5.2-3,7.1C48.3,76.7,45.8,77.6,42.7,77.6z M62.1,74.2c0,0.8,0.2,1.4,0.6,1.8c0.4,0.3,1.1,0.5,2.1,0.5
		h0.3v0.8h-5.4h-5.4v-0.8h0.3c1,0,1.7-0.1,2.1-0.5c0.4-0.4,0.6-0.9,0.6-1.8v-13c0-0.8-0.2-1.4-0.6-1.7c-0.4-0.3-1.1-0.5-2.1-0.5
		h-0.3v-0.8h7.8h10.2v2.9v3h-1c-0.3-1.6-0.9-2.8-1.8-3.6c-0.9-0.8-2.1-1.2-3.6-1.2h-3.9V74.2z M14.1,74.2l4.6-5.5l-5.2-7.5
		c-0.6-0.8-1.1-1.4-1.5-1.7c-0.4-0.3-0.8-0.5-1.3-0.5h-0.1v-0.8h5.2H21V59h-0.3c-1.1,0-1.8,0.2-2,0.6c-0.3,0.4-0.1,0.9,0.4,1.7
		l2.7,3.9l2.1-2.5c1-1.2,1.5-2.1,1.5-2.6c-0.1-0.6-0.7-0.8-2-1H23v-0.8h3.8h3.8V59h-0.2c-0.7,0.1-1.3,0.3-1.9,0.6
		c-0.6,0.4-1.1,0.9-1.8,1.7l-4.2,5l5.4,7.9c0.6,0.8,1.1,1.4,1.5,1.8c0.4,0.3,0.8,0.5,1.3,0.5h0.1v0.8h-5h-5v-0.8h0.3
		c1,0,1.6-0.2,1.8-0.5c0.2-0.4,0.1-0.9-0.4-1.7l-3-4.3h0l-2.6,3.2c-1,1.1-1.4,2-1.3,2.5c0.1,0.5,0.7,0.8,2,0.9h0.4v0.8h-3.7h-3.7
		v-0.8h0.1c0.6,0,1.2-0.2,1.7-0.5C12.9,75.6,13.5,75,14.1,74.2z M42.7,57.8V59c-1.7,0-3.1,0.8-4,2.3c-1,1.5-1.4,3.7-1.4,6.5
		c0,2.8,0.5,4.9,1.4,6.4c0.9,1.5,2.3,2.3,4,2.3l0,0v1.1c-3,0-5.5-0.9-7.5-2.8c-2-1.9-3-4.2-3-7.1c0-2.9,1-5.2,3-7.1
		C37.3,58.8,39.7,57.8,42.7,57.8z"/>
	<path class="st0" d="M130.4,77.3v-3.6h-1.3v-0.5h3.2v0.5H131v3.6H130.4z M133,77.3v-4h0.8l0.9,2.9c0.1,0.3,0.1,0.4,0.2,0.6
		c0-0.2,0.1-0.4,0.2-0.7l1-2.8h0.7v4h-0.5v-3.4l-1.2,3.4h-0.5l-1.1-3.4v3.4H133z"/>
	<path class="st0" d="M5.4,81.1l-0.4,0l-0.3,0l-0.3-0.1l-0.3-0.1l-0.3-0.1l-0.3-0.2l-0.3-0.1l-0.2-0.2L3,79.9l-0.2-0.2l-0.1-0.3
		l-0.1-0.3l-0.1-0.3l-0.1-0.3l0-0.3l0-0.4V57.7l0-0.4l0-0.3l0.1-0.3l0.1-0.3l0.1-0.3l0.1-0.2L3,55.7l0.2-0.2l0.2-0.2l0.3-0.2
		l0.3-0.1l0.3-0.1l0.3-0.1l0.3-0.1l0.3,0l0.4,0h7v-2.3h-7c-2.9,0-5.4,2.4-5.4,5.4V78c0,2.9,2.4,5.4,5.4,5.4h7v-2.3H5.4z"/>
	<path class="st0" d="M136.4,52.3H72.2v2.3h64.1l0.4,0l0.3,0l0.3,0.1l0.3,0.1l0.3,0.1l0.3,0.1l0.3,0.2l0.2,0.2l0.2,0.2l0.2,0.3
		l0.2,0.2l0.2,0.3l0.1,0.3l0.1,0.3l0,0.3l0,0.4v20.2l0,0.4l0,0.3l-0.1,0.3l-0.1,0.3l-0.2,0.3l-0.2,0.3l-0.2,0.2l-0.2,0.2l-0.2,0.2
		l-0.3,0.1l-0.3,0.2l-0.3,0.1l-0.3,0.1L137,81l-0.3,0l-0.4,0H72.2v2.3h64.1c2.9,0,5.4-2.4,5.4-5.4V57.6
		C141.7,54.7,139.3,52.3,136.4,52.3"/>
	<rect x="14.7" y="52.3" class="st0" width="55.3" height="2.3"/>
	<rect x="14.7" y="81.1" class="st0" width="55.3" height="2.3"/>
	<path class="st0" d="M14.7,5.5l0-0.4l0-0.3l0.1-0.3l0.1-0.3l0.1-0.3l0.1-0.2l0.2-0.3l0.2-0.2L15.8,3l0.3-0.2l0.3-0.1l0.3-0.1
		l0.3-0.1l0.3-0.1l0.3,0l0.4,0h48.9l0.4,0l0.3,0l0.3,0.1L68,2.5l0.3,0.1l0.3,0.1L68.8,3L69,3.2l0.2,0.2l0.2,0.3l0.2,0.2l0.1,0.3
		l0.1,0.3l0.1,0.3l0,0.3l0,0.4v5.4c0.7,0.2,1.5,0.6,2.3,1.1V5.4c0-2.9-2.4-5.4-5.4-5.4H17.8c-2.9,0-5.4,2.4-5.4,5.4v46.9h2.3V5.5z"
		/>
	<path class="st0" d="M69.9,49.8v2.5h2.3v-2.4C71.5,50,70.7,50.1,69.9,49.8"/>
	<path class="st0" d="M69.9,86.9l0,0.4l0,0.3l-0.1,0.3l-0.1,0.3l-0.1,0.3l-0.2,0.3L69.2,89L69,89.2l-0.2,0.2l-0.3,0.1l-0.3,0.2
		L68,89.9L67.8,90L67.5,90l-0.3,0l-0.4,0H17.8l-0.4,0l-0.3,0L16.9,90l-0.3-0.1l-0.3-0.1l-0.3-0.2l-0.3-0.1l-0.2-0.2L15.4,89
		l-0.2-0.2l-0.1-0.3l-0.1-0.3l-0.1-0.3l-0.1-0.3l0-0.3l0-0.4v-3.6h-2.3V87c0,2.9,2.4,5.4,5.4,5.4h49.1c2.9,0,5.4-2.4,5.4-5.4v-3.6
		h-2.3V86.9z"/>
	<rect x="69.9" y="81.1" class="st0" width="2.3" height="2.3"/>
	<rect x="12.4" y="52.3" class="st0" width="2.3" height="2.3"/>
	<rect x="12.4" y="81.1" class="st0" width="2.3" height="2.3"/>
	<rect x="69.9" y="52.3" class="st0" width="2.3" height="2.3"/>
	<path class="st0" d="M28.6,39.7c0,0-1.8,2.3-0.2,4.6c1.7,2.2,3.5,1.7,3.5,1.7s-1.3-0.3-2.2-2.3C28.9,41.7,28.6,39.7,28.6,39.7"/>
	<path class="st0" d="M35.5,38.2c0,0-1.7,1.7-1.2,3.6c0.4,1.8,1.8,2.9,1.8,2.9s-1.6,0.4-2.7-0.4c-1.1-0.8-1.8-3-0.4-4
		C34.4,39.2,35.5,38.2,35.5,38.2"/>
	<path class="st1" d="M102.2,31.6c-5.2,6.7-9.7,5.9-10.7,5.1c-1-0.7,1.9-4.4,1.9-4.4s-4.4,1.3-5.2-0.2c-0.8-1.4,3.8-2.6,3.7-7.5
		c-3.2,2.9-5.2,1.9-5.2,1.9s-6-5.8-11.4-11.4c-5.3-5.6-7.8-4.6-11.4-4.6c-3.6-0.1-10.5,3.3-16.1,3.2c-5.5-0.2-5.2-0.4-12.5-1.4
		c-7.3-1-11.4,10-11.4,10s-1.1,8.6,0,13.8c-0.2-4.9,0.6-6.1,0.8-7.3c5.8,7.4-0.3,9.7-0.6,11.9c-0.2,1.7,2.9,1.7,2.5,5.7
		c2.4,0,2.9,0.8,5.6,0.8c2.7,0,6-0.5,6.3-1.5c0.3-1-3.2-1.6-2.8-4.6c0.4-2.9,2-1.5,2.7-6.1c5.2,4.3,10.1,3.2,10.1,3.2s3.1,0,5.2,0
		c2.1-0.1,0.4,1.7,0.4,1.7s-3.2-1.1-4.1,1.2c-0.6,5.7,2.5,5.8,2.8,6.1c0.3,0.3,2.2,0.9,3.5-0.5c1.5-3.7,4.4-3,5.8-6.3
		c1.4-3.3,1.3-3.3,3.7-3.9c-0.2,3.4,1.4,5.8,2.1,8.4c0.6,1.2-0.6,0.5-0.8,2.3c2.5,5.9,8,0.9,8.2,0c-4.7-1-1.6-6.2-2.2-9.7
		c3.6-0.4,3.2,1.7,3.2,1.7s3.5,7.3,10.3,6.8c1.5,2.6,5-0.1,5-0.1s-0.4-2.3,1-3C93.9,42.1,103,36.5,102.2,31.6 M70.4,47.4
		c-0.8,0-1.3-0.4-1.3-0.4s0,0,0-2c0-2-0.9-2.6-0.9-2.6s-0.2-1.8,2.2-3c0.1-0.1,0.2-0.1,0.3-0.1c-0.8,5.1,1.9,7.3,1.9,7.3
		C71.7,47.2,71,47.4,70.4,47.4z M89.9,40.7c-1.2,2.3-3.4,2.1-3.4,2.1s-0.8,0-1.8-0.1c-1.2-0.1-2.8-0.4-4.1-1.2
		c-0.7-0.3-1.3-0.8-1.7-1.4c-1.5-1.6-0.6-3.7-1.5-3.9c-1.7-1-3.8,0.3-6.3-1.6c-0.7-0.5-1.4-1.3-2.1-2.4c-1.8,0.4-2.1,2.7-3.4,3.5
		c-1.3,0.7-3.3-0.1-4.3,1.6c-1,1.6,0.1,3-2.4,4.3c-2.6,1.4-2.2-0.8-3.4-0.7c-1.2,1.6,1.5,3.3,1.5,3.3s-1.5,0.9-3.2-0.3
		c0,1.1,0.2,1.9,0.2,1.9s-3.8-1.2-2.3-4.4c1.8,0.1,4,0.4,4.3-1.7c-0.9-6.4,2.4-12.2,2.4-12.2s-1.4-0.2-2.2,1.9
		c-0.8-1.5-0.6-2.4-0.6-2.4s-2.5,1.8-0.6,5.6c-1.2,1.2-0.8,2.1-5.8,2.8c-5,0.7-10.5-2.4-10.5-2.4s-2.8-3.1-4-11.2
		c-2.2,4.6,2.2,11.5-1.5,13.5c-0.6,0.3-1.2,0.7-1.7,1c-2.5,1.7-3.6,3.4-3.6,3.4s1.1-1.9,1.1-3.9c-0.2-4.1-3.8-4.2-4.1-9.4v-1.7
		c1.1-5.7,3.9-8.3,6.5-9.6c2.7-1.3,5.1-1.1,5.1-1.1s7.3,1.3,11.6,1.4c8.9,0,12-4.8,18.1-3.3c1.8,0.4,2.7,0.8,4.6,1.9
		c0.8,0.5,1.8,1.1,3.1,1.9c2,1.3,4.3,3.6,6.4,5.7c1.7,1.7,3.1,3.4,4.1,4.4c0.5,0.5,0.9,0.9,1.1,1c1.1,0.6,1.5,1,3.7,0.5
		c-3.4,2-3.2,4.6-3.2,4.6s-0.9,3.9,4.5,1.6c-3.2,1.6-2.2,3.1-2.2,3.1s2.8,5.2,10.8-0.4C97.9,37.8,95,41.1,89.9,40.7z"/>
	<path class="st0" d="M85.1,28.9c-0.6-1.6-0.5-1.3-0.6-1.2c-0.1,0-4.7-0.8-4.5,0.8c0.1,0.7,2.8,2,2.8,1.8c0-0.2,0.1-0.8,0.2-1.2
		c0.1-0.3,0.7-0.5,0.7-0.5s0.3,0.3,0.6,1.2c0.5,1.5-2.8,1.6-2.8,1.6l-0.3-0.1L80,29.7l0-0.1c-2,1.8-0.1,3-0.1,3
		c2.1,2.1,1.8,2.5,1.8,2.5s0.8,0.6,1.6,0c0.3-0.2,0.5-0.5,0.8-0.9c0.7-1.4,0.1-2.1-0.8-2.5c-0.3-0.1-0.6-0.2-0.9-0.3
		c0.7-0.1,1.1-0.1,1.4-0.3C84.2,31.1,85.7,30.5,85.1,28.9 M82.7,33.5c0,0.3-0.2,0.5-0.5,0.5c-0.2,0-0.5-0.2-0.5-0.5
		c0-0.3,0.2-0.5,0.5-0.5C82.5,33,82.7,33.2,82.7,33.5z"/>
</g>
</svg>
