<?xml version="1.0" encoding="utf-8"?>
<!-- Generator: Adobe Illustrator 21.0.2, SVG Export Plug-In . SVG Version: 6.00 Build 0)  -->
<svg version="1.1" id="Layer_1" xmlns="http://www.w3.org/2000/svg" xmlns:xlink="http://www.w3.org/1999/xlink" x="0px" y="0px"
	 viewBox="0 0 171.8 73.8" style="enable-background:new 0 0 171.8 73.8;" xml:space="preserve">
<style type="text/css">
	.st0{fill:#FFFFFF;}
</style>
<g>
	<g>
		<g>
			<g>
				<path class="st0" d="M12.4,61c-0.6-0.5-1.1-0.9-1.6-1.4c-0.9-0.9-1.8-1.9-2.6-3c-0.4-0.5-0.7-1.1-1.1-1.7
					c-0.3-0.6-0.6-1.1-0.9-1.7c-0.3-0.6-0.6-1.2-0.8-1.8c-0.2-0.6-0.5-1.2-0.7-1.8c-0.1-0.3-0.2-0.6-0.3-0.9
					c-0.1-0.3-0.2-0.6-0.3-0.9c-0.1-0.3-0.2-0.6-0.2-1c-0.1-0.3-0.1-0.6-0.2-1c-0.1-0.3-0.1-0.7-0.2-1c0-0.3-0.1-0.7-0.1-1
					c0-0.4-0.1-0.7-0.1-1c0-0.3,0-0.7-0.1-1c0-0.4,0-0.7,0-1.1c0-0.3,0-0.7,0-1.1c0-0.4,0.1-0.7,0.1-1.1c0-0.4,0.1-0.7,0.2-1.1
					c0.2-1.5,0.6-3,1.2-4.6c0.3-0.8,0.7-1.6,1.1-2.3c0.2-0.4,0.4-0.8,0.7-1.2c0.3-0.4,0.5-0.8,0.8-1.2c0.6-0.7,1.2-1.4,1.9-2.2
					c0.2-0.2,0.3-0.3,0.5-0.5c0.2-0.2,0.4-0.3,0.6-0.5c0.1-0.1,0.2-0.2,0.3-0.2c0.1-0.1,0.2-0.1,0.3-0.2c0.1-0.1,0.2-0.2,0.3-0.2
					c0.1,0,0.1-0.1,0.2-0.1c0,0,0.1,0,0.1-0.1c0.7-0.5,1.4-0.7,2.1-0.6c0.7,0.1,1.2,0.4,1.6,1c0.3,0.6,0.4,1.3,0.1,2
					c-0.2,0.7-0.7,1.3-1.4,1.8c0,0,0,0-0.1,0c0,0,0,0,0,0c0,0,0,0-0.1,0c-0.1,0-0.1,0.1-0.2,0.1c-0.1,0.1-0.1,0.1-0.2,0.1
					c-0.1,0-0.1,0.1-0.2,0.1c-0.1,0.1-0.2,0.2-0.3,0.3c-0.1,0.1-0.2,0.2-0.3,0.3c-0.4,0.4-0.7,0.8-1.2,1.3c-0.7,0.9-1.3,2-1.8,3.1
					c-0.2,0.6-0.4,1.1-0.6,1.7c-0.2,0.6-0.3,1.2-0.4,1.8c-0.1,0.6-0.2,1.2-0.2,1.8c-0.1,0.3-0.1,0.6-0.1,0.9c0,0.3,0,0.6,0,0.9
					c0,1.2,0,2.4,0.2,3.5c0.1,1.2,0.3,2.3,0.6,3.5c0.3,1.2,0.6,2.2,1,3.3c0.2,0.5,0.4,1,0.7,1.5c0.2,0.5,0.5,1,0.8,1.5
					c0.3,0.5,0.6,1,0.9,1.4c0.3,0.5,0.6,0.9,1,1.3c0.7,0.9,1.5,1.5,2.2,2c0.2,0.1,0.4,0.3,0.6,0.4c0.2,0.1,0.4,0.2,0.6,0.3
					c0.4,0.1,0.8,0.2,1.3,0.3c0.4,0,0.8,0,1.3-0.1c0.4-0.1,0.9-0.3,1.3-0.5c0.1,0,0.1-0.1,0.2-0.1c0,0,0.1,0,0.1-0.1c0,0,0,0,0,0
					c0,0,0,0,0.1,0c0,0,0.1,0,0.1,0c0,0,0,0,0.1,0c0.1,0,0.1-0.1,0.2-0.1c0.1-0.1,0.2-0.1,0.3-0.2c0.1-0.1,0.2-0.2,0.3-0.2
					c0.2-0.2,0.4-0.3,0.6-0.5c0.2-0.2,0.4-0.3,0.6-0.5c0.2-0.2,0.3-0.4,0.5-0.6c0.2-0.2,0.3-0.4,0.5-0.7c0.3-0.4,0.6-0.9,0.8-1.5
					c0.5-1,0.8-2.1,1.1-3.3c-0.5-0.1-1.1-0.2-1.7-0.4c-0.3-0.1-0.7-0.2-1-0.4c-0.3-0.1-0.6-0.3-0.9-0.4c-0.3-0.2-0.6-0.3-0.9-0.5
					c-0.3-0.2-0.6-0.3-0.9-0.5c-0.3-0.2-0.6-0.4-0.8-0.6c-0.3-0.2-0.5-0.4-0.8-0.6c-1.1-0.9-2-1.8-2.9-2.8c-0.9-1-1.6-2.2-2.3-3.5
					c-0.1-0.3-0.3-0.6-0.4-1c-0.2-0.3-0.3-0.7-0.4-1c-0.1-0.4-0.2-0.7-0.3-1.1c-0.1-0.4-0.2-0.7-0.2-1.1c-0.1-0.8-0.1-1.6-0.1-2.5
					c0.1-0.4,0.2-0.9,0.3-1.4c0.1-0.5,0.3-0.9,0.5-1.4c0.2-0.4,0.4-0.9,0.7-1.4c0.3-0.5,0.6-0.9,1-1.2c0.4-0.5,0.8-0.8,1.1-1.1
					c0.2-0.2,0.4-0.3,0.6-0.4c0.2-0.1,0.4-0.3,0.6-0.4c0.1,0,0.1-0.1,0.2-0.1c0,0,0,0,0,0c0,0,0,0,0,0c0,0,0,0,0,0c0,0,0,0,0,0
					c0.1-0.1,0.2-0.1,0.4-0.2c0.3-0.1,0.6-0.2,0.9-0.3c0.1,0,0.3-0.1,0.4-0.1c0.1,0,0.3,0,0.4-0.1c0.2,0,0.3,0,0.4,0
					c0.1,0,0.3,0,0.4,0c0.3,0,0.5,0.1,0.7,0.2c0.2,0.1,0.5,0.2,0.7,0.3c0.2,0.1,0.4,0.2,0.5,0.3c0.2,0.1,0.3,0.2,0.5,0.4
					c0.1,0.1,0.2,0.2,0.2,0.2c0.1,0.1,0.1,0.1,0.2,0.2c0.1,0.1,0.2,0.2,0.4,0.4c0.1,0.1,0.2,0.3,0.3,0.4c0.1,0.2,0.2,0.3,0.3,0.4
					c0.2,0.3,0.4,0.6,0.5,0.9c0.2,0.3,0.3,0.6,0.5,0.9c0.2,0.3,0.3,0.6,0.4,0.9c0.1,0.3,0.2,0.7,0.4,1c0.1,0.3,0.3,0.6,0.4,1
					c0.1,0.3,0.2,0.7,0.3,1c0.1,0.3,0.2,0.6,0.3,1c0.1,0.3,0.2,0.7,0.3,1c0.1,0.3,0.2,0.7,0.3,1c0.1,0.3,0.1,0.7,0.2,1.1
					c0.1,0.3,0.1,0.7,0.2,1c0.1,0.3,0.1,0.7,0.1,1c0,0.2,0,0.4,0.1,0.5c0,0.2,0,0.3,0.1,0.5c0,0.2,0.1,0.4,0.1,0.5
					c0,0.2,0,0.3,0,0.5c0,0.4,0.1,0.7,0.1,1.1c0,0.3,0,0.7,0,1c0,0.4,0,0.7,0,1c0,0.3,0,0.7,0,1.1c0,0.2,0,0.5,0,0.7
					c0,0.2,0,0.4,0,0.7c0.4-0.1,0.8-0.2,1.2-0.4c0.2-0.1,0.5-0.3,0.7-0.4c0.2-0.1,0.4-0.3,0.6-0.5c0.4-0.4,0.8-0.8,1.2-1.3
					c0.2-0.2,0.3-0.5,0.5-0.7c0.2-0.3,0.3-0.6,0.5-0.9c0.2-0.3,0.3-0.6,0.5-0.8c0.1-0.3,0.3-0.6,0.4-0.9c0.1-0.2,0.2-0.3,0.3-0.3
					c0.2-0.1,0.3-0.1,0.5,0c0.2,0.1,0.2,0.2,0.3,0.4c0,0.2,0,0.3,0,0.5c-0.2,0.7-0.5,1.3-0.8,2c-0.3,0.6-0.6,1.3-1,1.9
					c-0.2,0.3-0.4,0.6-0.6,0.9c-0.2,0.3-0.4,0.5-0.7,0.8c-0.2,0.3-0.5,0.5-0.7,0.7c-0.3,0.2-0.6,0.5-0.9,0.7
					c-0.3,0.2-0.6,0.4-0.9,0.5c-0.3,0.1-0.7,0.2-1,0.3c-0.1,0-0.2,0-0.3,0.1c0,0.1-0.1,0.3-0.1,0.5c-0.1,0.7-0.3,1.4-0.5,2
					c-0.2,0.7-0.4,1.3-0.7,2c-0.2,0.6-0.5,1.2-0.9,1.8c-0.3,0.6-0.7,1.2-1.1,1.7c-0.4,0.5-0.9,0.9-1.3,1.4c-0.2,0.2-0.5,0.4-0.7,0.6
					c0,0-0.1,0.1-0.1,0.1c0,0-0.1,0.1-0.1,0.1c0,0-0.1,0-0.1,0.1c0,0-0.1,0-0.1,0.1c0,0-0.1,0-0.1,0c0,0-0.1,0.1-0.1,0.1
					c-0.1,0-0.1,0.1-0.2,0.1c-0.3,0.2-0.6,0.3-0.9,0.5c-0.3,0.1-0.6,0.3-0.9,0.4c-0.7,0.2-1.4,0.3-2,0.3c-0.4,0-0.7,0-1.1,0
					c-0.4,0-0.7-0.1-1.1-0.2c-0.4-0.1-0.7-0.2-1-0.3c-0.3-0.1-0.7-0.3-1-0.4C13.5,61.8,12.9,61.4,12.4,61z M21.7,45.2
					c0.4,0.4,0.7,0.9,1.1,1.3c0.4,0.4,0.8,0.8,1.2,1.1c0.5,0.4,0.9,0.6,1.3,0.9c0.4,0.2,0.8,0.3,1.2,0.5c0-0.2,0-0.4,0.1-0.6
					c0-0.2,0-0.4,0.1-0.6c0-0.7,0.1-1.3,0.1-1.9c0-0.6,0-1.3-0.1-1.9c0-0.2,0-0.4,0-0.5c0-0.2,0-0.3,0-0.5c0-0.2,0-0.3-0.1-0.5
					c0-0.2,0-0.3-0.1-0.5c0-0.3-0.1-0.7-0.1-1c0-0.3-0.1-0.6-0.2-1c-0.1-0.6-0.3-1.3-0.4-1.9c-0.2-0.6-0.3-1.2-0.6-1.8
					c-0.4-1.2-1-2.3-1.6-3.3c-0.2-0.3-0.4-0.5-0.5-0.7c-0.2-0.2-0.4-0.4-0.6-0.6c-0.4-0.4-0.9-0.7-1.3-0.9c-0.1,0-0.2-0.1-0.3-0.1
					c-0.1,0-0.2-0.1-0.3,0c-0.2,0-0.4-0.1-0.6,0c-0.1,0-0.2,0.1-0.4,0.2c-0.1,0-0.1,0.1-0.2,0.1c0,0,0,0-0.1,0.1c0,0,0,0,0,0
					c0,0,0,0,0,0c0,0,0,0,0,0c0,0,0,0-0.1,0.1c-0.2,0.2-0.4,0.4-0.5,0.5c-0.1,0.2-0.3,0.4-0.4,0.6c-0.2,0.3-0.4,0.7-0.5,1.2
					c-0.1,0.2-0.1,0.4-0.1,0.7c0,0.2-0.1,0.5-0.1,0.7c0,0.3,0,0.5,0,0.7c0,0.2,0,0.5,0.1,0.8c0,0.5,0.1,1,0.3,1.6
					c0.2,0.5,0.3,1,0.5,1.6c0.2,0.5,0.4,1.1,0.6,1.6c0.2,0.5,0.5,1,0.8,1.5c0.1,0.2,0.3,0.5,0.4,0.7c0.2,0.2,0.3,0.5,0.5,0.7
					c0.2,0.2,0.3,0.5,0.5,0.7c0.1,0.1,0.2,0.2,0.3,0.4C21.5,45,21.6,45.1,21.7,45.2z"/>
			</g>
		</g>
		<g>
			<g>
				<path class="st0" d="M42.5,44c0,0.3-0.1,0.6-0.1,0.9c-0.1,0.3-0.1,0.6-0.1,0.9c-0.1,0.3-0.1,0.6-0.2,0.9
					c-0.1,0.3-0.2,0.6-0.3,0.9c0,0.2-0.1,0.3-0.2,0.5c-0.1,0.2-0.1,0.3-0.2,0.5c-0.1,0.2-0.2,0.3-0.3,0.5c-0.1,0.1-0.2,0.3-0.3,0.4
					c-0.3,0.3-0.5,0.6-0.8,0.8c-0.1,0.1-0.3,0.2-0.5,0.3c0,0-0.1,0.1-0.1,0.1c0,0-0.1,0-0.1,0.1c-0.1,0-0.1,0-0.1,0.1c0,0,0,0-0.1,0
					c0,0,0,0,0,0c0,0,0,0,0,0c0,0,0,0,0,0c-0.2,0.1-0.5,0.2-0.8,0.2c-0.1,0-0.3,0-0.4,0c-0.1,0-0.2-0.1-0.4-0.1
					c-0.1,0-0.2-0.1-0.3-0.1c-0.1,0-0.2-0.1-0.3-0.1c-0.1,0-0.2-0.1-0.3-0.2c-0.1-0.1-0.2-0.1-0.2-0.2c-0.1-0.1-0.2-0.1-0.2-0.2
					c-0.1-0.1-0.1-0.1-0.2-0.2c-0.1-0.1-0.1-0.1-0.2-0.2c-0.1-0.1-0.1-0.1-0.2-0.2c-0.1-0.1-0.2-0.3-0.3-0.4
					c-0.1-0.1-0.2-0.3-0.3-0.4c-0.4-0.5-0.7-1-1-1.5c-0.1-0.3-0.3-0.5-0.4-0.8c-0.1-0.3-0.3-0.5-0.4-0.8c-0.1-0.3-0.2-0.5-0.3-0.8
					c0-0.1-0.1-0.3-0.1-0.4c-0.1-0.1-0.1-0.3-0.1-0.4c0-0.1-0.1-0.2-0.1-0.2c0-0.1-0.1-0.2-0.1-0.2c-0.1-0.2-0.1-0.3-0.2-0.6
					c-0.1-0.4-0.2-0.8-0.3-1.1c-0.1-0.4-0.2-0.8-0.3-1.2c-0.3-1.1-0.5-2.2-0.7-3.4c-0.2-1.1-0.3-2.3-0.4-3.5c0-0.3,0-0.6,0-0.9
					c0-0.3,0-0.6,0-0.9c0-0.1,0-0.3,0-0.5c0-0.2,0-0.3,0-0.5c0-0.2,0-0.3,0-0.5c0-0.2,0-0.3,0-0.5c0.1-0.7,0.2-1.3,0.4-1.9
					c0.2-0.6,0.4-1.3,0.8-2c0-0.1,0.1-0.2,0.1-0.3c0-0.1,0.1-0.2,0.2-0.3c0-0.1,0.1-0.2,0.2-0.3c0.1-0.1,0.1-0.2,0.2-0.3
					c0.1-0.1,0.2-0.2,0.2-0.3c0.1-0.1,0.2-0.2,0.3-0.3c0.2-0.2,0.4-0.4,0.6-0.5c0.1-0.1,0.1-0.1,0.2-0.1c0.1,0,0.1-0.1,0.2-0.1
					c0.1,0,0.1-0.1,0.2-0.1c0,0,0,0,0,0c0,0,0,0,0,0c0,0,0,0,0.1,0c0,0,0.1,0,0.1,0c0.1-0.1,0.3-0.1,0.5-0.1c0.2,0,0.3,0,0.5,0
					c0.1,0,0.1,0,0.2,0.1c0.1,0,0.1,0.1,0.2,0.1c0.1,0.1,0.2,0.1,0.3,0.2c0.1,0.1,0.2,0.3,0.3,0.5c0.1,0.2,0.1,0.3,0.2,0.5
					c0,0.2,0.1,0.3,0.1,0.5c0,0.2,0,0.3,0.1,0.5c0,0.1,0,0.3,0.1,0.5c0,0.2,0,0.3,0,0.5c0,0.2,0,0.3,0,0.4c0,0.1,0,0.2,0,0.2
					c0,0.1,0,0.1,0,0.2c0,0.2,0,0.3,0,0.5c0,0.3,0,0.6,0,0.9c0,0.3,0,0.6,0,0.9c0,0.2,0,0.3,0,0.4c0,0.1,0,0.3,0,0.4
					c0,0.3,0,0.6,0,0.9c-0.1,1.2-0.1,2.4-0.3,3.6c-0.1,1.2-0.2,2.4-0.4,3.6c0,0.3-0.1,0.6-0.1,0.9c0,0.3-0.1,0.6-0.1,0.9
					c0,0.2-0.1,0.3-0.1,0.5c0,0.2,0,0.3,0,0.5c0,0.2-0.1,0.3-0.1,0.5c0,0.1,0,0.2,0,0.2c0,0.1,0,0.1,0,0.2c0,0.1,0,0.1,0.1,0.2
					c0,0.1,0.1,0.3,0.1,0.4c0,0.1,0.1,0.3,0.1,0.4c0,0.1,0.1,0.3,0.1,0.4c0,0.1,0.1,0.3,0.1,0.4c0.1,0.3,0.2,0.5,0.3,0.8
					c0.1,0.2,0.2,0.5,0.3,0.8c0.1,0.2,0.2,0.5,0.3,0.7c0.1,0.1,0.1,0.2,0.1,0.4c0.1,0.1,0.1,0.2,0.2,0.3c0.1,0.1,0.1,0.2,0.2,0.3
					c0.1,0.1,0.1,0.2,0.2,0.3c0.1,0.1,0.1,0.2,0.2,0.3c0.1,0.1,0.1,0.2,0.2,0.2c0.1,0.1,0.1,0.2,0.2,0.2c0,0.1,0.1,0.1,0.1,0.1
					c0,0,0.1,0,0.1,0.1c0,0,0,0,0.1,0c0,0,0,0,0,0c0,0,0,0,0.1,0c0,0,0.1,0,0.1,0c0.1,0,0.2-0.1,0.3-0.1c0.1-0.1,0.3-0.2,0.5-0.4
					c0.2-0.2,0.3-0.4,0.4-0.6c0.1-0.1,0.1-0.2,0.2-0.3c0.1-0.1,0.1-0.2,0.2-0.3c0.1-0.2,0.2-0.5,0.3-0.7s0.2-0.5,0.3-0.8
					c0.1-0.3,0.2-0.5,0.3-0.8c0.1-0.3,0.1-0.6,0.2-0.8c0-0.1,0.1-0.3,0.1-0.4c0-0.1,0.1-0.3,0.1-0.4c0-0.1,0-0.2,0-0.2
					c0-0.1,0-0.1,0-0.2c0-0.1,0-0.1,0.1-0.2c0-0.1,0-0.1,0-0.2c0,0,0,0,0,0c0-0.2,0.1-0.3,0.2-0.4c0.1-0.1,0.2-0.1,0.4-0.1
					c0.3,0,0.5,0.2,0.5,0.5c0,0,0,0.1,0,0.1c0,0,0,0.1,0,0.1c0,0,0,0.1,0,0.2c0,0.1,0,0.2,0,0.2c0,0.1,0,0.1,0,0.2
					C42.5,43.4,42.5,43.7,42.5,44z M34.3,36.5c0,0.1,0,0.3,0,0.4c0.1-0.2,0.1-0.5,0.2-0.7c0.1-0.2,0.1-0.5,0.2-0.7
					c0.3-1.2,0.5-2.4,0.6-3.5c0.2-1.2,0.3-2.3,0.3-3.5c0-0.1,0-0.2,0-0.2c0-0.1,0-0.1,0-0.2c0-0.1,0-0.1,0-0.2c0-0.1,0-0.1,0-0.2
					c0-0.1,0-0.3,0-0.4c0-0.1,0-0.3-0.1-0.4c0-0.1,0-0.3-0.1-0.4c0-0.1-0.1-0.3-0.1-0.4c0-0.1-0.1-0.2-0.1-0.4
					c0-0.1-0.1-0.1-0.1-0.2c0-0.1-0.1-0.1-0.1-0.1c-0.1-0.1-0.1-0.2-0.2-0.2c0,0,0,0-0.1,0c0,0,0,0,0,0c0,0,0,0,0,0c0,0,0,0,0,0
					c0,0,0,0,0,0c0,0,0,0,0,0c0,0,0,0,0,0c0,0,0,0,0,0c0,0,0,0-0.1,0.1c-0.1,0.1-0.1,0.1-0.2,0.2c0,0.1,0,0.1-0.1,0.1
					c0,0-0.1,0.1-0.1,0.1c0,0.1,0,0.2-0.1,0.3c0,0.1-0.1,0.2-0.1,0.4c0,0.3-0.1,0.5-0.1,0.8c0,0.1,0,0.3,0,0.4c0,0.1,0,0.3,0,0.4
					c0,0.1,0,0.3,0,0.4c0,0.1,0,0.3,0,0.4c0,0.3,0,0.5,0,0.8c0,0.6,0,1.1,0,1.7c0,0.6,0.1,1.1,0.1,1.7C34,34.4,34.2,35.5,34.3,36.5z
					"/>
			</g>
		</g>
		<g>
			<g>
				<path class="st0" d="M56.6,41.9c-0.1,0.4-0.3,0.7-0.4,1c-0.1,0.2-0.1,0.3-0.2,0.5c-0.1,0.2-0.2,0.3-0.3,0.5
					c-0.2,0.3-0.4,0.6-0.7,0.9c-0.2,0.1-0.3,0.3-0.5,0.4c-0.2,0.1-0.3,0.2-0.5,0.3c-0.1,0.1-0.2,0.1-0.3,0.1c-0.1,0-0.2,0.1-0.3,0.1
					c0,0-0.1,0-0.1,0c0,0,0,0,0,0c0,0,0,0-0.1,0c0,0,0,0,0,0c0,0,0,0,0,0c0,0-0.1,0-0.1,0c-0.1,0-0.2,0-0.4,0.1c-0.1,0-0.3,0-0.4,0
					c-0.1,0-0.3,0-0.4-0.1c-0.3-0.1-0.5-0.2-0.7-0.3c-0.2-0.1-0.3-0.2-0.5-0.4c-0.1-0.1-0.2-0.1-0.2-0.2c-0.1-0.1-0.1-0.1-0.2-0.2
					c-0.2-0.3-0.4-0.6-0.6-0.9c-0.2-0.3-0.3-0.5-0.4-0.9c-0.1-0.3-0.3-0.6-0.4-0.9c-0.1-0.3-0.2-0.6-0.3-0.9
					c-0.1-0.2-0.1-0.4-0.2-0.6c-0.1-0.2-0.1-0.4-0.2-0.6c0,0.1,0,0.2-0.1,0.4c-0.1,0.2-0.1,0.3-0.1,0.5c0,0.2-0.1,0.3-0.1,0.5
					c-0.1,0.2-0.1,0.3-0.1,0.5c0,0.2-0.1,0.3-0.1,0.5c-0.1,0.2-0.1,0.3-0.1,0.5c0,0.2-0.1,0.3-0.1,0.5c-0.1,0.3-0.2,0.6-0.3,0.9
					c0,0.2-0.1,0.3-0.2,0.5c-0.1,0.2-0.1,0.3-0.2,0.5c-0.1,0.2-0.1,0.3-0.2,0.5c-0.1,0.2-0.2,0.3-0.2,0.5c-0.1,0.2-0.2,0.3-0.3,0.5
					c-0.1,0.2-0.2,0.3-0.3,0.5c-0.1,0.1-0.1,0.2-0.2,0.3c-0.1,0.1-0.1,0.1-0.2,0.2c-0.1,0.2-0.3,0.3-0.5,0.4c0,0-0.1,0-0.1,0.1
					c0,0-0.1,0-0.1,0c0,0-0.1,0-0.1,0c0,0,0,0,0,0c0,0,0,0,0,0c0,0,0,0,0,0c0,0,0,0,0,0c0,0-0.1,0-0.1,0c-0.1,0-0.1,0-0.2,0.1
					c-0.2,0.1-0.5,0.1-0.8,0.1c-0.3,0-0.5-0.1-0.8-0.2c-0.1-0.1-0.2-0.1-0.3-0.2C42,48,41.9,48,41.8,47.9c-0.2-0.1-0.4-0.3-0.5-0.4
					c-0.1-0.1-0.1-0.1-0.2-0.2c-0.1-0.1-0.1-0.2-0.2-0.2c-0.1-0.2-0.2-0.3-0.3-0.5c-0.1-0.2-0.2-0.3-0.3-0.5
					c-0.1-0.2-0.2-0.3-0.2-0.5c-0.1-0.2-0.1-0.3-0.2-0.5c0-0.2-0.1-0.3-0.2-0.5c0-0.1,0-0.2-0.1-0.3c0-0.1,0-0.2-0.1-0.3
					c0-0.2-0.1-0.3-0.1-0.5c0-0.2-0.1-0.3-0.1-0.5c0-0.3-0.1-0.7-0.1-1c0-0.3,0-0.7,0-1c0-0.1,0-0.2,0-0.3c0-0.1,0-0.2,0-0.3
					c0-0.1,0-0.2,0-0.2c0,0,0-0.1,0-0.1c0,0,0-0.1,0-0.1c0-0.2,0.1-0.4,0.1-0.6c0-0.2,0.1-0.4,0.1-0.6c0.2-0.8,0.5-1.5,0.9-2.2
					c0.1-0.2,0.2-0.4,0.3-0.5c0.1-0.2,0.2-0.3,0.3-0.5c0.1-0.1,0.1-0.2,0.2-0.2c0.1-0.1,0.1-0.2,0.2-0.3c0.1-0.1,0.2-0.2,0.2-0.2
					c0.1-0.1,0.1-0.2,0.2-0.2c0.1-0.1,0.2-0.2,0.2-0.2c0.1-0.1,0.2-0.1,0.2-0.2c0.1-0.1,0.2-0.1,0.3-0.2c0.1-0.1,0.2-0.1,0.3-0.2
					c0.1-0.1,0.2-0.1,0.3-0.2c0.1-0.1,0.2-0.1,0.3-0.2c0.1-0.1,0.2-0.1,0.3-0.2c0.1,0,0.2-0.1,0.4-0.2c0.1-0.1,0.2-0.1,0.4-0.1
					c0.1,0,0.3-0.1,0.4-0.1c0.3-0.1,0.6-0.1,0.9-0.1c0.1,0,0.3,0,0.4,0.1c0.1,0,0.3,0.1,0.4,0.1c0.1,0,0.2,0.1,0.3,0.2
					c0.1,0,0.1,0.1,0.2,0.2c-0.1-1.1-0.1-2.2-0.1-3.3c0-1.1,0.1-2.2,0.2-3.4c0.1-0.6,0.2-1.3,0.3-1.9c0.1-0.6,0.3-1.3,0.5-2
					c0.1-0.3,0.2-0.6,0.3-1c0.1-0.3,0.2-0.7,0.4-1c0.1-0.2,0.1-0.3,0.2-0.5c0.1-0.2,0.2-0.3,0.3-0.5c0.2-0.4,0.4-0.7,0.7-1
					c0.1-0.1,0.1-0.2,0.2-0.2c0.1-0.1,0.1-0.2,0.2-0.2c0.1-0.1,0.2-0.2,0.2-0.3c0.1-0.1,0.2-0.2,0.2-0.2c0.1-0.1,0.2-0.2,0.3-0.3
					c0.1-0.1,0.2-0.2,0.3-0.2c0.2-0.1,0.5-0.3,0.8-0.4c0.1,0,0.1,0,0.2-0.1c0,0,0.1,0,0.1,0c0,0,0,0,0.1,0c0,0,0,0,0.1,0
					c0,0,0,0,0,0c0,0,0,0,0,0c0,0,0,0,0,0c0,0,0.1,0,0.1,0c0,0,0.1,0,0.1,0c0,0,0.1,0,0.1,0c0.2,0,0.3,0,0.5,0
					c0.2,0,0.3,0.1,0.5,0.2c0.1,0.1,0.2,0.1,0.3,0.3c0.1,0.1,0.2,0.2,0.2,0.3c0,0,0.1,0.1,0.1,0.1c0,0.1,0,0.1,0.1,0.1
					c0,0.1,0,0.2,0,0.3c0,0.1,0,0.2,0,0.3c0,0.1,0,0.2,0,0.3c0,0.1,0,0.2,0,0.3c0,0.1,0,0.2,0,0.3c0,0.2,0,0.3,0,0.5
					c0,0.2,0,0.3,0,0.5c0,0.2,0,0.3-0.1,0.5c0,0.2,0,0.3-0.1,0.5c0,0.1,0,0.1,0,0.3c0,0.1,0,0.2,0,0.2c0,0.1,0,0.2,0,0.2
					c0,0.1,0,0.1,0,0.2c0,0.3-0.1,0.6-0.2,0.9c-0.1,0.3-0.1,0.6-0.2,1c0,0.3-0.1,0.6-0.2,0.9c-0.1,0.3-0.1,0.6-0.2,0.9
					c-0.2,0.6-0.3,1.3-0.4,1.9c-0.1,0.6-0.3,1.3-0.4,1.9c-0.1,0.3-0.2,0.6-0.2,0.9c-0.1,0.3-0.2,0.6-0.2,1c-0.1,0.3-0.1,0.6-0.2,0.9
					c-0.1,0.3-0.2,0.6-0.2,0.9c-0.1,0.3-0.2,0.6-0.3,0.9c-0.1,0.3-0.2,0.6-0.3,1c0,0.2-0.1,0.3-0.1,0.5c-0.1,0.2-0.1,0.3-0.1,0.5
					c-0.1,0.2-0.1,0.3-0.2,0.5c0,0.1,0,0.2-0.1,0.2c0,0.1,0,0.2,0,0.2c0,0.3,0.1,0.6,0.1,0.9c0.1,0.3,0.1,0.6,0.1,0.8
					c0,0.3,0.1,0.6,0.1,0.8c0,0.3,0.1,0.5,0.1,0.8c0.1,0.3,0.1,0.5,0.2,0.8c0.1,0.3,0.1,0.5,0.2,0.8c0.1,0.3,0.1,0.5,0.2,0.7
					c0.1,0.3,0.2,0.5,0.3,0.6c0.1,0.2,0.2,0.3,0.3,0.4c0,0,0,0.1,0.1,0.1c0,0,0,0,0.1,0c0,0,0,0,0,0c0,0,0,0,0,0c0,0,0,0,0,0
					c0,0,0,0,0.1,0c0.1,0,0.1,0,0.2-0.1c0.2-0.1,0.3-0.2,0.5-0.3c0.2-0.1,0.3-0.3,0.5-0.5c0.2-0.2,0.3-0.4,0.5-0.6
					c0.2-0.2,0.3-0.5,0.4-0.7c0.1-0.2,0.2-0.5,0.3-0.8c0.2-0.5,0.4-1.1,0.6-1.7c0-0.2,0.1-0.3,0.1-0.4c0-0.1,0.1-0.3,0.1-0.4
					c0-0.1,0-0.2,0.1-0.2c0-0.1,0-0.1,0.1-0.2c0-0.1,0-0.1,0-0.2c0-0.1,0-0.2,0-0.2c0,0,0,0,0,0c0-0.2,0.1-0.3,0.3-0.4
					c0.1-0.1,0.3-0.1,0.4-0.1c0.3,0,0.4,0.2,0.4,0.5c0,0,0,0.1,0,0.1c0,0,0,0.1,0,0.1c0,0.1,0,0.1,0,0.2c0,0.1,0,0.2,0,0.2
					c0,0.1,0,0.1,0,0.2c0,0.2,0,0.3-0.1,0.5c0,0.2-0.1,0.3-0.1,0.5c0,0.2-0.1,0.3-0.1,0.5c0,0.2-0.1,0.3-0.1,0.5
					c-0.1,0.3-0.2,0.6-0.2,0.9C56.8,41.2,56.7,41.6,56.6,41.9z M47.7,38.3c0,0,0-0.1,0-0.1c0,0,0-0.1,0-0.1c0-0.1-0.1-0.2-0.1-0.3
					c0-0.1,0-0.2,0-0.3c0-0.1,0-0.2,0-0.3c-0.1-0.2-0.1-0.4-0.1-0.6c0-0.2,0-0.3-0.1-0.4c0-0.1-0.1-0.3-0.1-0.4c0,0-0.1,0-0.1-0.1
					c0,0,0,0,0,0c0,0,0,0,0,0c0,0-0.1-0.1-0.1-0.1c0,0-0.1,0-0.1-0.1c0,0,0-0.1-0.1-0.1c-0.1-0.1-0.1-0.1-0.2-0.2
					c-0.1,0-0.1-0.1-0.2-0.1c-0.2-0.2-0.5-0.3-0.6-0.3c-0.1,0-0.1,0-0.2,0c0,0,0,0-0.1,0c0,0,0,0-0.1,0c-0.1,0-0.1,0.1-0.2,0.1
					c0,0-0.1,0.1-0.1,0.1c0,0-0.1,0-0.1,0.1c-0.1,0.1-0.2,0.1-0.2,0.2c0,0-0.1,0.1-0.1,0.1c0,0-0.1,0.1-0.1,0.1c0,0-0.1,0.1-0.1,0.1
					c-0.1,0-0.1,0.1-0.1,0.1c-0.1,0.1-0.2,0.2-0.2,0.3c0,0,0,0.1-0.1,0.1c0,0,0,0-0.1,0.1c0,0,0,0.1-0.1,0.1c0,0,0,0.1-0.1,0.1
					c-0.1,0.2-0.3,0.5-0.4,0.7c-0.1,0.2-0.3,0.5-0.4,0.8c-0.1,0.1-0.1,0.3-0.2,0.4c0,0.1-0.1,0.3-0.1,0.4c-0.1,0.1-0.1,0.3-0.1,0.4
					c0,0.1,0,0.1-0.1,0.2c0,0.1,0,0.1-0.1,0.2c0,0.1-0.1,0.3-0.1,0.4c0,0.1-0.1,0.3-0.1,0.4c0,0,0,0.1,0,0.1c0,0,0,0.1,0,0.1
					c0,0.1,0,0.1,0,0.2c0,0.1-0.1,0.3-0.1,0.4c-0.1,0.5-0.1,1.1-0.1,1.7c0,0.6,0,1.2,0.1,1.7c0,0.1,0,0.3,0.1,0.4
					c0,0.1,0,0.3,0.1,0.4c0,0.1,0.1,0.3,0.1,0.4c0,0.1,0.1,0.2,0.1,0.3c0.1,0.2,0.2,0.4,0.3,0.5c0.1,0.1,0.1,0.1,0.1,0.2
					c0,0,0.1,0,0.1,0.1c0.1,0,0.1,0,0.2,0c0,0,0,0,0.1,0c0,0,0,0,0,0c0,0,0,0,0,0c0,0,0,0,0,0c0,0,0,0,0,0c0,0,0,0,0.1,0
					c0.1-0.1,0.3-0.2,0.5-0.4c0.2-0.2,0.4-0.4,0.5-0.7c0.1-0.1,0.2-0.2,0.2-0.4c0.1-0.1,0.2-0.3,0.2-0.4c0.1-0.1,0.1-0.3,0.2-0.4
					c0.1-0.1,0.1-0.3,0.2-0.4c0.1-0.3,0.3-0.6,0.4-0.9c0.1-0.2,0.1-0.3,0.2-0.5c0.1-0.1,0.1-0.3,0.2-0.5c0.1-0.2,0.1-0.3,0.2-0.5
					c0.1-0.1,0.1-0.3,0.2-0.5c0-0.2,0.1-0.3,0.1-0.5c0-0.2,0.1-0.3,0.1-0.5c0.1-0.2,0.1-0.3,0.1-0.5c0-0.1,0.1-0.3,0.1-0.5
					C47.5,38.9,47.6,38.6,47.7,38.3z M51,26.3c0,0.6-0.1,1.2-0.1,1.8c0,0.6-0.1,1.2-0.1,1.8c0,0.1,0,0.2,0,0.3c0,0.1,0,0.2,0,0.3
					c0.1-0.2,0.2-0.5,0.3-0.7c0.1-0.2,0.2-0.5,0.3-0.7c0.2-0.6,0.4-1.2,0.6-1.8c0.2-0.6,0.4-1.2,0.5-1.8c0.2-0.6,0.3-1.2,0.5-1.8
					c0.2-0.6,0.3-1.2,0.4-1.8c0-0.1,0-0.2,0.1-0.2c0-0.1,0-0.2,0-0.2c0-0.1,0-0.2,0-0.2c0,0,0-0.1,0-0.1c0,0,0-0.1,0-0.1
					c0-0.2,0-0.3,0-0.4c0-0.1,0-0.3,0-0.4c0-0.2,0-0.3,0-0.4c0-0.1,0-0.3-0.1-0.4c0-0.1,0-0.3-0.1-0.4c0-0.1-0.1-0.2-0.1-0.3
					c0,0,0-0.1,0-0.1c0,0,0-0.1,0-0.1c-0.1-0.1-0.1-0.1-0.1-0.1c0,0-0.1,0-0.1-0.1c0,0,0,0,0,0c0,0,0,0,0,0c0,0,0,0,0,0c0,0,0,0,0,0
					c0,0,0,0,0,0c0,0,0,0,0,0c0,0,0,0,0,0c0,0,0,0-0.1,0c0,0-0.1,0.1-0.2,0.2c0,0-0.1,0.1-0.1,0.1c0,0-0.1,0.1-0.1,0.1
					c0,0.1-0.1,0.2-0.1,0.3c-0.1,0.1-0.1,0.2-0.2,0.4c-0.1,0.3-0.2,0.5-0.2,0.8c0,0.1-0.1,0.3-0.1,0.4c0,0.1-0.1,0.3-0.1,0.4
					c0,0.3-0.1,0.6-0.2,0.9c-0.1,0.3-0.1,0.6-0.2,0.9c-0.1,0.6-0.2,1.2-0.3,1.8C51.1,25.1,51,25.7,51,26.3z"/>
			</g>
		</g>
		<g>
			<g>
				<path class="st0" d="M72.3,19.4c0-0.1,0-0.2,0.1-0.3c0-0.1,0-0.2,0.1-0.3c0.2-0.8,0.5-1.5,0.8-2.2c0.3-0.7,0.8-1.5,1.3-2.2
					c0.5-0.7,1-1.4,1.6-2c0.3-0.3,0.7-0.6,1-0.9c0.3-0.3,0.7-0.6,1.1-0.8c0.7-0.5,1.5-1,2.4-1.3c0.8-0.4,1.7-0.7,2.6-0.9
					c0.9-0.2,1.8-0.3,2.7-0.3c0.4,0,0.9,0,1.3,0.1c0.4,0.1,0.9,0.2,1.3,0.4c0.2,0.1,0.4,0.1,0.6,0.2c0.2,0.1,0.4,0.2,0.5,0.3
					c0.2,0.1,0.3,0.2,0.5,0.4c0.2,0.1,0.3,0.3,0.5,0.4c0.1,0.1,0.3,0.3,0.4,0.4c0.1,0.2,0.2,0.3,0.4,0.5c0.2,0.3,0.3,0.6,0.4,1
					c0.1,0.4,0.2,0.8,0.3,1.1c0,0.2,0.1,0.4,0.1,0.6c0,0.2,0,0.4,0,0.6c0,0.2,0,0.4,0,0.5c0,0.2,0,0.4,0,0.5c0,0.1,0,0.1,0,0.1
					c0,0,0,0.1,0,0.1c0,0,0,0.1,0,0.1c0,0,0,0.1,0,0.1c0,0,0,0.1,0,0.1c0,0.1,0,0.2-0.1,0.3c0,0.1,0,0.2,0,0.3
					c-0.2,0.8-0.6,1.5-1,2.2c-0.2,0.3-0.4,0.7-0.7,1c-0.2,0.3-0.5,0.6-0.8,0.9c-0.5,0.6-1.1,1.1-1.7,1.6c-0.6,0.5-1.2,1-1.8,1.4
					c-1.2,0.8-2.5,1.5-3.9,2.1c-0.5,0.2-0.9,0.4-1.4,0.6c-0.5,0.2-0.9,0.3-1.4,0.5c0.1,0.1,0.2,0.2,0.3,0.4c0.1,0.1,0.2,0.3,0.3,0.4
					c0.2,0.2,0.4,0.4,0.5,0.6c0.2,0.2,0.3,0.4,0.5,0.6c0.1,0.1,0.2,0.2,0.3,0.3c0.1,0.1,0.2,0.2,0.3,0.3c0,0,0.1,0.1,0.1,0.1
					c0,0.1,0.1,0.1,0.1,0.1c0,0,0.1,0.1,0.1,0.1c0.1,0.1,0.1,0.1,0.2,0.1c0,0.1,0.1,0.1,0.1,0.2c0,0.1,0.1,0.1,0.1,0.1
					c0,0,0,0,0.1,0.1c0.2,0.2,0.3,0.3,0.4,0.4c0.2,0.2,0.5,0.5,0.7,0.8c0.4,0.5,0.8,1.2,1.2,1.9c0.3,0.6,0.6,1.4,0.8,2.2
					c0.2,0.8,0.3,1.6,0.3,2.5c0,0.9-0.1,1.7-0.2,2.5c-0.1,0.8-0.4,1.6-0.8,2.5c-0.4,0.8-0.8,1.6-1.2,2.3c-0.5,0.7-1,1.3-1.5,1.9
					c-0.1,0.1-0.3,0.3-0.4,0.4c-0.1,0.1-0.3,0.3-0.5,0.4c-0.3,0.2-0.5,0.4-0.9,0.7c-0.2,0.1-0.3,0.2-0.5,0.3
					c-0.1,0.1-0.3,0.2-0.5,0.3c-0.2,0.1-0.3,0.2-0.5,0.2c-0.2,0.1-0.3,0.1-0.5,0.2c-0.2,0.1-0.3,0.1-0.5,0.2
					c-0.1,0.1-0.3,0.1-0.5,0.2C77.5,50,77.3,50,77.2,50c-0.2,0-0.3,0.1-0.5,0.1c-0.2,0.1-0.3,0.1-0.5,0.1c-0.2,0-0.3,0.1-0.5,0.1
					c-0.2,0-0.3,0-0.5,0.1c-0.1,0-0.3,0-0.5,0.1c-0.2,0-0.3,0-0.5,0c-0.2,0-0.3,0-0.5,0c-0.1,0-0.2,0-0.2,0c-0.1,0-0.1,0-0.2,0
					c-0.1,0-0.2,0-0.2,0c0,0,0,0-0.1,0c0,0,0,0,0,0c0,0,0,0,0,0c0,0-0.1,0-0.1,0c-0.3,0-0.7,0-1-0.1c-0.3-0.1-0.7-0.1-1-0.2
					c-0.6-0.2-1.3-0.5-1.9-0.9c-0.6-0.4-1.2-0.9-1.6-1.5c-0.5-0.6-0.9-1.3-1.1-1.9c-0.1-0.3-0.3-0.7-0.3-1c-0.1-0.4-0.1-0.7-0.2-1.1
					c-0.1-0.7,0-1.5,0.1-2.2c0-0.2,0.1-0.4,0.1-0.5c0-0.2,0.1-0.3,0.1-0.5c0.1-0.2,0.1-0.4,0.2-0.5c0.1-0.2,0.1-0.3,0.2-0.5
					c0.1-0.2,0.2-0.4,0.2-0.5c0.1-0.2,0.2-0.3,0.3-0.5c0.2-0.3,0.4-0.6,0.6-0.9c0.4-0.6,0.9-1.1,1.4-1.6c1-0.9,2.1-1.7,3.4-2.3
					c0.1-0.1,0.3-0.1,0.4,0c0.1,0.1,0.2,0.2,0.3,0.3c0.1,0.3,0,0.5-0.2,0.7c0,0-0.1,0.1-0.1,0.1c0,0-0.1,0-0.1,0.1
					c-0.1,0.1-0.2,0.1-0.2,0.1c-0.1,0.1-0.2,0.2-0.4,0.3c-0.1,0.1-0.2,0.2-0.4,0.3c-0.1,0.1-0.2,0.2-0.4,0.3
					c-0.2,0.2-0.4,0.5-0.6,0.7c-0.2,0.2-0.4,0.4-0.6,0.7c-0.4,0.5-0.7,1-1,1.5c-0.3,0.5-0.5,1-0.6,1.5c-0.1,0.2-0.1,0.5-0.2,0.8
					c0,0.1,0,0.3,0,0.4c0,0.1,0,0.3,0,0.4c0,0.5,0,1,0.1,1.5c0.1,0.2,0.1,0.4,0.2,0.6c0.1,0.2,0.2,0.4,0.3,0.6
					c0.2,0.4,0.5,0.8,0.7,1c0.1,0.1,0.3,0.2,0.5,0.4c0.2,0.1,0.3,0.2,0.5,0.3c0.2,0.1,0.4,0.2,0.6,0.2c0.2,0.1,0.4,0.1,0.6,0.2
					c0.2,0,0.4,0,0.6,0c0.2,0,0.4,0,0.7,0c0,0,0.1,0,0.1,0c0,0,0,0,0,0c0,0,0,0,0.1,0c0.1,0,0.1,0,0.2,0c0.1,0,0.2,0,0.4,0
					c0.1,0,0.2-0.1,0.4-0.1c0.1,0,0.2,0,0.4-0.1c0.2,0,0.5-0.1,0.7-0.2c0.1,0,0.2-0.1,0.3-0.1c0.1,0,0.2-0.1,0.3-0.1
					c0.1-0.1,0.2-0.1,0.3-0.1c0.1,0,0.2-0.1,0.3-0.1c0.3-0.1,0.5-0.2,0.7-0.3c0.1-0.1,0.2-0.1,0.3-0.2c0.1-0.1,0.2-0.1,0.3-0.2
					c0.1-0.1,0.2-0.2,0.3-0.2c0.1-0.1,0.2-0.1,0.3-0.2c0.2-0.2,0.4-0.3,0.5-0.5c0.1-0.1,0.1-0.2,0.2-0.2c0.1-0.1,0.2-0.2,0.2-0.2
					c0.6-0.7,1-1.4,1.4-2.4c0.3-0.9,0.4-1.7,0.3-2.6c-0.1-0.9-0.3-1.7-0.8-2.5c-0.1-0.2-0.2-0.4-0.4-0.6c-0.1-0.2-0.3-0.4-0.4-0.6
					c-0.1-0.1-0.1-0.2-0.2-0.3c-0.1-0.1-0.2-0.2-0.3-0.3c-0.1,0-0.1-0.1-0.1-0.1c0,0-0.1-0.1-0.1-0.1c0,0-0.1-0.1-0.1-0.1
					c0,0-0.1-0.1-0.2-0.1c-0.1-0.1-0.1-0.1-0.2-0.2c-0.1-0.1-0.1-0.1-0.2-0.2c-0.1-0.1-0.2-0.2-0.3-0.3c-0.1-0.1-0.2-0.2-0.3-0.4
					c-0.1-0.1-0.2-0.2-0.3-0.3c-0.2-0.3-0.5-0.5-0.7-0.7c-0.2-0.2-0.5-0.5-0.7-0.7c-0.4-0.5-0.8-1-1.1-1.5c-0.4-0.5-0.7-1.1-1-1.7
					c-0.6,0.1-1.2,0.1-1.8,0.2c-0.6,0-1.2,0-1.8,0c-0.4,0-0.7-0.1-1.1-0.1c-0.3-0.1-0.7-0.1-1.1-0.2c-0.7-0.2-1.4-0.4-2.1-0.7
					c-0.3-0.1-0.6-0.3-0.9-0.5c-0.3-0.2-0.6-0.4-1-0.6c-0.3-0.2-0.6-0.5-0.8-0.7c-0.3-0.3-0.5-0.5-0.7-0.8c-0.5-0.6-0.8-1.3-1.1-2
					c-0.3-0.7-0.5-1.5-0.6-2.3c0-0.4,0-0.8,0-1.2c0-0.4,0.1-0.8,0.2-1.3c0.1-0.4,0.2-0.9,0.4-1.3c0.2-0.4,0.4-0.9,0.7-1.3
					c0.4-0.7,1-1.2,1.9-1.5c0.8-0.3,1.6-0.3,2.3-0.1c0.7,0.3,1.1,0.7,1.3,1.4c0.2,0.6,0.1,1.3-0.2,1.9c0,0-0.1,0.1-0.1,0.1
					c-0.2,0.4-0.4,0.8-0.5,1.1c-0.1,0.4-0.2,0.8-0.3,1.2c0,0.3-0.1,0.5,0,0.6c0,0.1,0,0.2,0,0.3c0,0.1,0,0.2,0,0.3
					c0.1,0.4,0.2,0.8,0.4,1.3c0.2,0.4,0.4,0.8,0.6,1.2c0.3,0.4,0.6,0.7,0.9,1.1c0.8,0.6,1.7,1.1,2.7,1.5c0.5,0.2,1.2,0.3,1.9,0.4
					c0-0.1,0-0.1,0-0.1c0,0,0,0,0-0.1c-0.1-0.3-0.2-0.7-0.3-1.1c-0.1-0.4-0.1-0.7-0.2-1.1C72,23.1,72,22.7,72,22.3
					c0-0.4,0-0.8,0.1-1.2c0-0.2,0-0.4,0.1-0.6c0-0.2,0-0.4,0.1-0.6c0,0,0-0.1,0-0.1c0,0,0,0,0,0c0-0.1,0-0.1,0-0.2c0,0,0-0.1,0-0.1
					c0,0,0-0.1,0-0.1C72.3,19.5,72.3,19.4,72.3,19.4z M77.2,20.7c0,0.5,0,1,0.1,1.4c0.2,0.9,0.5,1.8,1,2.7c0,0,0,0.1,0.1,0.1
					c0,0,0.1,0.1,0.1,0.1c0.5-0.2,1.1-0.3,1.6-0.5c0.5-0.2,1.1-0.4,1.6-0.6c0.6-0.3,1.2-0.6,1.8-0.9c0.6-0.3,1.1-0.7,1.7-1.1
					c0.5-0.3,1-0.7,1.6-1.2c0.2-0.2,0.5-0.5,0.7-0.7c0.2-0.2,0.5-0.5,0.7-0.7c0.4-0.5,0.8-1,1-1.5c0.3-0.5,0.5-1.1,0.6-1.6
					c0-0.1,0-0.3,0-0.4c0,0,0,0,0,0c0,0,0,0,0,0c0,0,0-0.1,0-0.1c0-0.1,0-0.2,0-0.2c0-0.1,0-0.3,0-0.4c0-0.2,0-0.3-0.1-0.4
					c0-0.6-0.2-1.1-0.4-1.6c-0.1-0.1-0.1-0.2-0.2-0.3c-0.1-0.1-0.2-0.2-0.3-0.3c0-0.1-0.1-0.2-0.2-0.3c-0.1-0.1-0.2-0.1-0.3-0.2
					c-0.1-0.1-0.2-0.2-0.3-0.2c-0.1-0.1-0.2-0.1-0.3-0.1c-0.1-0.1-0.2-0.1-0.3-0.1c-0.1,0-0.2-0.1-0.4-0.1c-0.6-0.1-1.1-0.2-1.6-0.1
					c-0.6,0.1-1.1,0.2-1.7,0.4c-0.5,0.2-1.1,0.4-1.7,0.8c-0.2,0.2-0.5,0.3-0.7,0.5c-0.2,0.2-0.5,0.4-0.7,0.6
					c-0.9,0.8-1.6,1.7-2.2,2.7c-0.5,1-0.9,2.1-1.1,3.1c-0.1,0.2-0.1,0.3-0.1,0.4c0,0,0,0.1,0,0.1c0,0,0,0,0,0c0,0,0,0.1,0,0.1
					c0,0,0,0.1,0,0.1c0,0,0,0.1,0,0.1c0,0,0,0,0,0c0,0.1,0,0.3,0,0.4C77.2,20.5,77.2,20.6,77.2,20.7z"/>
			</g>
		</g>
		<g>
			<g>
				<path class="st0" d="M86.2,36.4c-0.1-0.3-0.1-0.5-0.1-0.8c0-0.3,0-0.6,0-0.8c0-0.6,0.1-1.1,0.2-1.6c0-0.1,0.1-0.3,0.1-0.4
					c0-0.1,0.1-0.2,0.1-0.4c0-0.1,0.1-0.3,0.1-0.4c0-0.1,0.1-0.3,0.1-0.4c0.1-0.3,0.2-0.5,0.3-0.7c0.1-0.2,0.2-0.5,0.3-0.7
					c0.5-0.9,1-1.8,1.6-2.7c0.2-0.2,0.3-0.4,0.5-0.6c0.2-0.2,0.3-0.4,0.5-0.6c0.2-0.2,0.3-0.4,0.5-0.6c0.2-0.2,0.4-0.4,0.6-0.5
					c0.2-0.2,0.4-0.4,0.6-0.5c0.2-0.1,0.4-0.3,0.7-0.5c0.5-0.3,1-0.6,1.5-0.8c0.5-0.2,1.1-0.4,1.7-0.6c0,0,0,0,0.1,0c0,0,0,0,0,0
					c0,0,0,0,0,0c0,0,0,0,0,0c0,0,0,0,0,0c0,0,0,0,0,0c0,0,0.1,0,0.1,0c0,0,0.1,0,0.1,0c0.1,0,0.2,0,0.2,0c0.1,0,0.2,0,0.2,0
					c0.2,0,0.4,0,0.5,0c0.2,0,0.3,0.1,0.5,0.1c0.1,0,0.2,0.1,0.3,0.1c0.1,0,0.2,0.1,0.2,0.1c0.1,0,0.2,0.1,0.2,0.1
					c0.1,0.1,0.1,0.1,0.2,0.1c0.1,0.1,0.3,0.2,0.4,0.4c0.1,0.1,0.2,0.3,0.4,0.4c0.1,0.1,0.2,0.3,0.3,0.4c0.1,0.1,0.2,0.3,0.2,0.5
					c0.1,0.2,0.1,0.3,0.1,0.5c0,0.2,0.1,0.3,0.1,0.5c0,0.3,0.1,0.7,0.1,1c0,0.3-0.1,0.7-0.1,1c-0.1,0.7-0.4,1.3-0.7,1.9
					c-0.3,0.7-0.7,1.2-1.3,1.8c-0.3,0.3-0.6,0.5-0.9,0.7c-0.1,0.1-0.3,0.2-0.5,0.3c-0.1,0.1-0.2,0.1-0.3,0.1c0,0,0,0-0.1,0
					c0,0,0,0-0.1,0c0,0-0.1,0-0.1,0c0,0,0,0,0,0c0,0,0,0,0,0c-0.5,0.2-1,0.2-1.5-0.1c-0.5-0.3-0.8-0.6-0.9-1.2c-0.1-0.5,0-1,0.2-1.4
					c0.2-0.5,0.6-0.8,1-1.1c0,0,0,0,0,0c0,0,0,0,0,0c0,0,0,0,0,0C95,29,95,29,95,29c0.1-0.1,0.1-0.1,0.2-0.2
					c0.2-0.2,0.3-0.3,0.4-0.6c0.1-0.2,0.2-0.5,0.3-0.7c0.1-0.3,0.2-0.5,0.2-0.8c0-0.2,0-0.4,0-0.7c0-0.2-0.1-0.4-0.2-0.5
					c0,0-0.1-0.1-0.1-0.1c0,0-0.1-0.1-0.2-0.1c-0.1,0-0.1-0.1-0.2-0.1c0,0-0.1,0-0.1,0c0,0,0,0,0,0c0,0,0,0,0,0c0,0,0,0,0,0
					c0,0,0,0-0.1,0c-0.3-0.1-0.7-0.1-1.1-0.1c-0.1,0-0.2,0-0.3,0.1c-0.1,0-0.2,0.1-0.3,0.1c-0.1,0-0.2,0.1-0.3,0.1
					c-0.1,0-0.2,0.1-0.3,0.1c-0.1,0-0.2,0.1-0.3,0.1c-0.1,0.1-0.2,0.1-0.3,0.2c-0.1,0.1-0.2,0.1-0.2,0.2c-0.1,0.1-0.2,0.1-0.2,0.2
					c-0.7,0.6-1.2,1.3-1.6,2.1c-0.2,0.4-0.4,0.8-0.5,1.2c-0.1,0.4-0.3,0.8-0.4,1.2c-0.1,0.4-0.2,0.8-0.2,1.2c0,0.4,0,0.8,0,1.2
					c0,0.4,0.1,0.7,0.1,1.1c0.1,0.3,0.1,0.6,0.3,0.9c0.1,0.2,0.1,0.3,0.2,0.4c0.1,0.1,0.1,0.2,0.2,0.3c0.2,0.2,0.3,0.3,0.5,0.4
					c0.1,0.1,0.3,0.2,0.6,0.3c0.1,0,0.2,0.1,0.3,0.1c0.1,0,0.3,0.1,0.4,0.1c0.1,0,0.1,0,0.2,0c0,0,0,0,0,0c0,0,0,0,0,0
					c0,0,0,0,0.1,0c0,0,0,0,0,0c0,0,0,0,0.1,0c0,0,0,0,0,0c0.2,0,0.3,0,0.5,0c0.2,0,0.4,0,0.5,0c0.1,0,0.2,0,0.3,0
					c0.1,0,0.2,0,0.2,0c0.4-0.1,0.7-0.1,1.1-0.2c0.4-0.1,0.8-0.2,1.1-0.4c0.1,0,0.2-0.1,0.3-0.1c0.1,0,0.2-0.1,0.3-0.1
					c0.1,0,0.2-0.1,0.3-0.1c0.1,0,0.2-0.1,0.3-0.2c0.2-0.1,0.4-0.2,0.6-0.3c0.2-0.1,0.4-0.2,0.6-0.3c0.4-0.2,0.8-0.4,1.2-0.7
					c0.4-0.2,0.8-0.5,1.1-0.8c0.1-0.1,0.3-0.2,0.5-0.4c0.2-0.2,0.3-0.3,0.4-0.3c0.1-0.1,0.2-0.2,0.3-0.2c0.1-0.1,0.2-0.2,0.3-0.2
					c0.1-0.1,0.2-0.1,0.3-0.2c0.1-0.1,0.2-0.1,0.3-0.2c0.1-0.1,0.2-0.1,0.3-0.2c0,0,0.1-0.1,0.1-0.1c0.1,0,0.1-0.1,0.1-0.1
					c0,0,0,0,0,0c0.1-0.1,0.2-0.1,0.3-0.1c0.1,0,0.2,0.1,0.3,0.2c0.1,0.2,0.1,0.3,0,0.5c0,0-0.1,0.1-0.1,0.1c0,0-0.1,0.1-0.1,0.1
					c-0.1,0.1-0.1,0.1-0.1,0.2c0,0.1-0.1,0.1-0.1,0.1c-0.1,0.1-0.2,0.2-0.2,0.3c-0.1,0.1-0.2,0.2-0.2,0.3c-0.2,0.2-0.3,0.3-0.5,0.5
					c-0.1,0.1-0.2,0.2-0.4,0.5c-0.2,0.2-0.3,0.4-0.4,0.5c-0.7,0.7-1.4,1.4-2.2,2c-0.2,0.2-0.4,0.3-0.6,0.5c-0.2,0.2-0.4,0.3-0.6,0.5
					c-0.1,0.1-0.2,0.2-0.3,0.2c-0.1,0.1-0.2,0.2-0.3,0.2c-0.1,0.1-0.2,0.1-0.3,0.2c-0.1,0.1-0.2,0.1-0.3,0.2c0,0-0.1,0.1-0.2,0.1
					c-0.1,0-0.1,0.1-0.2,0.1c-0.1,0-0.1,0.1-0.2,0.1c-0.1,0-0.1,0.1-0.2,0.1c-0.1,0.1-0.2,0.1-0.3,0.2c-0.1,0.1-0.2,0.1-0.3,0.2
					c-0.2,0.1-0.4,0.2-0.7,0.4c-0.2,0.1-0.4,0.2-0.7,0.3c-0.1,0.1-0.2,0.1-0.4,0.2c-0.1,0-0.2,0.1-0.4,0.1c-0.1,0-0.3,0.1-0.4,0.1
					c-0.1,0-0.2,0.1-0.4,0.1c-0.1,0-0.3,0.1-0.4,0.1c-0.1,0-0.3,0-0.4,0.1c0,0-0.1,0-0.1,0c0,0-0.1,0-0.1,0c0,0,0,0-0.1,0
					c0,0,0,0,0,0c0,0,0,0,0,0c0,0,0,0,0,0c0,0,0,0-0.1,0c-0.1,0-0.3,0-0.4,0c-0.3,0-0.5,0-0.8-0.1c-0.3,0-0.6-0.1-0.8-0.2
					c-0.2-0.1-0.5-0.2-0.8-0.3c-0.2-0.1-0.5-0.3-0.8-0.5c-0.5-0.4-0.9-0.9-1.1-1.4c-0.2-0.3-0.3-0.5-0.4-0.8
					C86.4,37,86.3,36.7,86.2,36.4z"/>
			</g>
		</g>
		<g>
			<g>
				<path class="st0" d="M103.1,38.3C103.1,38.3,103.1,38.3,103.1,38.3c-0.2,0.4-0.3,0.8-0.5,1.2c0,0,0,0,0,0.1
					c-0.2,0.5-0.5,0.8-0.9,1.1c-0.4,0.2-0.9,0.3-1.3,0.1c-0.4-0.1-0.7-0.4-0.8-0.8c-0.2-0.4-0.2-0.8-0.1-1.3c0-0.1,0.1-0.1,0.1-0.2
					c0-0.1,0-0.2,0.1-0.2c0-0.1,0.1-0.3,0.1-0.4c0.1-0.2,0.1-0.3,0.2-0.4c0-0.1,0.1-0.3,0.1-0.4c0.1-0.3,0.2-0.6,0.3-0.8
					c0.1-0.3,0.2-0.6,0.3-0.8c0.1-0.1,0.1-0.3,0.2-0.4c0-0.1,0.1-0.3,0.1-0.4c0.1-0.3,0.2-0.6,0.3-0.8c0.1-0.3,0.2-0.6,0.3-0.8
					c0.1-0.3,0.2-0.6,0.3-0.8c0.4-1.1,0.8-2.2,1.3-3.3c0.4-1.1,0.9-2.2,1.4-3.3c0.5-1.1,1-2.2,1.5-3.3c0.5-1.1,1-2.2,1.6-3.3
					c0.2-0.3,0.3-0.5,0.5-0.8c0.1-0.1,0.1-0.3,0.2-0.4c0.1-0.1,0.1-0.3,0.2-0.4c0.2-0.3,0.3-0.6,0.5-0.8c0.1-0.3,0.3-0.5,0.5-0.8
					c0.1-0.1,0.2-0.3,0.2-0.4c0.1-0.1,0.2-0.3,0.2-0.4c0.1-0.1,0.2-0.3,0.3-0.4c0.1-0.1,0.2-0.3,0.3-0.4c0.1-0.2,0.2-0.3,0.3-0.4
					c0.1-0.1,0.2-0.3,0.3-0.4c0.1-0.1,0.2-0.3,0.3-0.4c0.1-0.1,0.2-0.3,0.3-0.4c0.4-0.6,0.9-1.1,1.4-1.5c0.1-0.1,0.3-0.3,0.4-0.4
					c0.1-0.1,0.3-0.2,0.4-0.3c0.1-0.1,0.1-0.1,0.2-0.2c0.1-0.1,0.2-0.1,0.2-0.2c0.1-0.1,0.3-0.2,0.4-0.3c0.2-0.1,0.4-0.2,0.5-0.3
					c0.2-0.1,0.4-0.2,0.6-0.3c0.2-0.1,0.5-0.2,0.7-0.3c0.1,0,0.2-0.1,0.4-0.1c0.1,0,0.2,0,0.4-0.1c0.2,0,0.5-0.1,0.8,0
					c0,0,0.1,0,0.1,0c0,0,0,0,0,0c0,0,0,0,0.1,0c0,0,0.1,0,0.1,0c0,0,0.1,0,0.1,0c0.1,0.1,0.2,0.1,0.4,0.2c0.1,0.1,0.2,0.2,0.3,0.3
					c0,0.1,0.1,0.1,0.1,0.2c0,0.1,0.1,0.1,0.1,0.2c0.1,0.2,0.1,0.4,0.1,0.6c0,0.1,0,0.2,0,0.3c0,0.1,0,0.2-0.1,0.3
					c0,0.1,0,0.2,0,0.3c0,0.1,0,0.2-0.1,0.2c-0.1,0.3-0.2,0.6-0.3,0.9c-0.1,0.2-0.1,0.3-0.2,0.5c-0.1,0.1-0.1,0.3-0.2,0.5
					c-0.1,0.2-0.1,0.3-0.2,0.5c0,0,0,0.1-0.1,0.1c0,0-0.1,0.1-0.1,0.1c0,0.1-0.1,0.1-0.1,0.2c-0.7,1.2-1.3,2.3-1.9,3.3
					c-0.4,0.5-0.7,1.1-1.1,1.6c-0.4,0.5-0.7,1-1.1,1.6c-0.1,0.1-0.2,0.3-0.3,0.4c-0.1,0.1-0.2,0.2-0.3,0.4c0,0,0,0.1,0,0.1
					c0,0-0.1,0.1-0.1,0.1c-0.1,0.1-0.1,0.1-0.1,0.2c-0.1,0.1-0.1,0.1-0.2,0.2c0,0.1-0.1,0.1-0.2,0.2c-0.1,0.1-0.2,0.3-0.3,0.4
					c-0.1,0.1-0.2,0.2-0.3,0.4c-0.1,0.1-0.2,0.2-0.3,0.3c-0.1,0.1-0.2,0.2-0.3,0.4c-0.2,0.2-0.4,0.5-0.6,0.7
					c-0.2,0.2-0.4,0.5-0.6,0.7c-0.2,0.2-0.4,0.5-0.6,0.7c-0.2,0.2-0.4,0.5-0.6,0.7c-0.2,0.2-0.3,0.5-0.5,0.7
					c-0.2,0.2-0.3,0.5-0.5,0.7c-0.2,0.3-0.4,0.5-0.5,0.7c0,0.1-0.1,0.1-0.1,0.2c0,0.1-0.1,0.1-0.1,0.2c0,0.1-0.1,0.1-0.1,0.2
					c0,0.1-0.1,0.1-0.1,0.2c-0.3,0.6-0.5,1.2-0.8,1.8c-0.2,0.6-0.5,1.2-0.7,1.8c0.1-0.2,0.2-0.3,0.3-0.5c0.1-0.2,0.3-0.5,0.4-0.7
					c0.1-0.1,0.1-0.2,0.2-0.3c0.1-0.1,0.2-0.2,0.2-0.3c0.3-0.4,0.6-0.8,0.9-1.3c0.3-0.4,0.6-0.8,1-1.3c0.1-0.1,0.2-0.2,0.3-0.3
					c0.1-0.1,0.2-0.2,0.3-0.3c0.2-0.2,0.4-0.4,0.5-0.6c0.2-0.2,0.4-0.4,0.6-0.7c0.2-0.2,0.4-0.4,0.6-0.6c0.4-0.4,0.9-0.8,1.4-1.3
					c0.3-0.2,0.5-0.4,0.8-0.6c0.3-0.2,0.6-0.3,1-0.5c0.3-0.1,0.7-0.3,1.1-0.3c0.2,0,0.4,0,0.6-0.1c0.2,0,0.4,0,0.6,0
					c0,0,0.1,0,0.2,0c0,0,0,0,0.1,0c0,0,0,0,0,0c0,0,0,0,0,0c0,0,0,0,0,0c0.2,0,0.4,0.1,0.4,0.1c0.1,0,0.2,0.1,0.3,0.1
					c0.1,0,0.2,0.1,0.3,0.1c0.1,0,0.2,0.1,0.3,0.1c0.1,0.1,0.2,0.1,0.3,0.2c0.2,0.2,0.4,0.3,0.5,0.5c0.1,0.2,0.3,0.4,0.3,0.6
					c0.1,0.2,0.2,0.4,0.2,0.6c0,0.1,0,0.2,0.1,0.3c0,0.1,0,0.2,0,0.3c0,0.3,0,0.6,0,0.9c0,0.1,0,0.2-0.1,0.4c0,0.1-0.1,0.2-0.1,0.3
					c-0.1,0.2-0.1,0.4-0.2,0.6c-0.1,0.2-0.1,0.3-0.2,0.5c-0.1,0.2-0.2,0.3-0.2,0.4c-0.1,0.1-0.1,0.3-0.2,0.4
					c-0.1,0.1-0.2,0.3-0.2,0.4c-0.1,0.1-0.1,0.3-0.2,0.4c-0.2,0.3-0.3,0.5-0.4,0.7c-0.1,0.2-0.3,0.5-0.5,0.7
					c-0.2,0.2-0.3,0.4-0.5,0.6c-0.2,0.2-0.3,0.4-0.5,0.6c-0.3,0.4-0.6,0.9-0.9,1.3c-0.3,0.4-0.6,0.8-0.9,1.2
					c-0.3,0.4-0.6,0.8-0.8,1.2c-0.2,0.2-0.3,0.4-0.4,0.6c-0.1,0.2-0.2,0.4-0.4,0.6c-0.1,0.1-0.1,0.2-0.2,0.3c0,0.1-0.1,0.2-0.2,0.3
					c0,0.1-0.1,0.2-0.1,0.3c0,0.1-0.1,0.2-0.1,0.2c-0.1,0.1-0.1,0.2-0.1,0.3c0.1,0,0.3-0.1,0.4-0.1c0.2,0,0.4-0.1,0.5-0.2
					c0.1,0,0.2-0.1,0.3-0.1c0.1,0,0.2-0.1,0.3-0.1c0.2-0.1,0.4-0.2,0.6-0.3c0.2-0.1,0.4-0.2,0.6-0.4c0.4-0.2,0.8-0.5,1.2-0.8
					c0.4-0.3,0.8-0.6,1.2-0.9c0.2-0.1,0.5-0.3,0.8-0.6c0.3-0.3,0.6-0.5,0.8-0.6c0.1-0.1,0.2-0.2,0.3-0.2c0.1-0.1,0.2-0.1,0.3-0.2
					c0.1-0.1,0.2-0.2,0.3-0.2c0.1-0.1,0.2-0.2,0.3-0.2c0.2-0.2,0.4-0.1,0.5,0c0.1,0.2,0.1,0.3-0.1,0.5c0,0.1-0.1,0.2-0.2,0.3
					c-0.1,0.1-0.2,0.2-0.2,0.3c-0.1,0.1-0.2,0.2-0.3,0.3c-0.1,0.1-0.2,0.2-0.2,0.3c-0.2,0.2-0.4,0.5-0.7,0.7
					c-0.3,0.3-0.5,0.6-0.7,0.8c-0.2,0.2-0.4,0.4-0.5,0.6c-0.2,0.2-0.4,0.4-0.5,0.6c-0.2,0.2-0.4,0.4-0.6,0.5
					c-0.1,0.1-0.2,0.2-0.3,0.3c-0.1,0.1-0.2,0.2-0.3,0.3c-0.4,0.3-0.8,0.7-1.2,1c-0.2,0.2-0.4,0.3-0.7,0.5c-0.2,0.2-0.5,0.3-0.7,0.4
					c-0.1,0.1-0.3,0.1-0.4,0.2c-0.1,0.1-0.3,0.1-0.4,0.2c-0.2,0.1-0.3,0.1-0.5,0.1c-0.2,0-0.3,0.1-0.5,0.1c-0.2,0-0.2,0-0.3,0
					c0,0,0,0-0.1,0c0,0-0.1,0-0.1,0c0,0,0,0,0,0c0,0,0,0,0,0c0,0,0,0,0,0c0,0-0.1,0-0.1,0c-0.2,0-0.4-0.1-0.6-0.2
					c-0.1,0-0.1-0.1-0.2-0.1c0,0-0.1-0.1-0.2-0.1c-0.1-0.1-0.1-0.1-0.2-0.2c-0.1-0.1-0.1-0.1-0.1-0.2c-0.1-0.1-0.2-0.2-0.2-0.4
					c0-0.1-0.1-0.2-0.1-0.2c0-0.1,0-0.1-0.1-0.2c-0.1-0.2-0.1-0.5-0.1-0.7c0-0.2,0-0.4,0-0.6c0-0.2,0.1-0.4,0.1-0.5
					c0-0.1,0.1-0.3,0.1-0.5c0-0.2,0.1-0.3,0.1-0.5c0.1-0.1,0.1-0.3,0.2-0.4c0-0.1,0.1-0.3,0.1-0.4c0.1-0.1,0.1-0.3,0.2-0.4
					c0.1-0.3,0.2-0.5,0.3-0.7c0.1-0.2,0.2-0.5,0.4-0.7c0.1-0.2,0.2-0.5,0.3-0.7c0.1-0.2,0.2-0.5,0.3-0.7c0.3-0.4,0.5-0.9,0.7-1.3
					c0.2-0.5,0.5-0.9,0.7-1.4c0.1-0.2,0.2-0.4,0.3-0.7c0.1-0.2,0.2-0.4,0.3-0.6c0.1-0.2,0.2-0.4,0.3-0.6c0.1-0.2,0.2-0.4,0.3-0.6
					c0.1-0.1,0.1-0.2,0.1-0.3c0,0,0,0-0.1,0c-0.2,0-0.4,0.1-0.6,0.2c-0.2,0.1-0.4,0.1-0.6,0.2c-0.2,0.1-0.4,0.2-0.6,0.3
					c-0.2,0.1-0.4,0.2-0.6,0.4c-0.1,0.1-0.2,0.1-0.3,0.2c-0.1,0.1-0.2,0.1-0.3,0.2c-0.1,0.1-0.2,0.1-0.3,0.2
					c-0.1,0.1-0.2,0.2-0.3,0.2c-0.7,0.6-1.4,1.3-2.1,2c-0.1,0.1-0.2,0.2-0.3,0.3c-0.1,0.1-0.2,0.2-0.2,0.3c-0.2,0.2-0.4,0.4-0.5,0.6
					c-0.1,0.1-0.2,0.2-0.2,0.3c-0.1,0.1-0.2,0.2-0.2,0.3c-0.1,0.1-0.2,0.2-0.2,0.3c-0.1,0.1-0.2,0.2-0.2,0.3
					c-0.3,0.4-0.6,0.8-0.9,1.2c-0.3,0.4-0.6,0.8-0.8,1.2c-0.1,0.2-0.3,0.4-0.4,0.6c-0.1,0.2-0.3,0.4-0.4,0.6
					C103.3,37.9,103.2,38.1,103.1,38.3z M110.9,20c-0.1,0.2-0.2,0.4-0.3,0.6c-0.1,0.2-0.2,0.4-0.3,0.6c0.1,0,0.1-0.1,0.1-0.1
					c0,0,0,0,0.1-0.1c0.1-0.1,0.2-0.2,0.3-0.3c0.1-0.1,0.2-0.2,0.3-0.3c0.2-0.1,0.3-0.3,0.3-0.3c0,0,0.1-0.1,0.1-0.1
					c0,0,0.1,0,0.1-0.1c0,0,0.1,0,0.1-0.1c0,0,0-0.1,0.1-0.1c0.2-0.2,0.4-0.5,0.6-0.7c0.8-0.9,1.6-1.9,2.3-2.9c0.4-0.5,0.7-1,1-1.5
					c0.3-0.5,0.6-1,0.9-1.6c0-0.1,0.1-0.1,0.1-0.2c0,0,0-0.1,0.1-0.1c0,0,0-0.1,0.1-0.1c0-0.1,0.1-0.1,0.1-0.2
					c0-0.1,0.1-0.1,0.1-0.2c0.1-0.3,0.2-0.5,0.3-0.8c0-0.1,0.1-0.3,0.1-0.4c0-0.1,0.1-0.3,0.1-0.4c0-0.1,0-0.1,0-0.2
					c0-0.1,0-0.1,0-0.2c0-0.1,0-0.1,0-0.2c0-0.1,0-0.1,0-0.1c-0.1-0.1-0.1-0.2-0.1-0.2c0,0,0,0,0,0c0,0,0,0,0,0c0,0,0,0,0,0
					c0,0,0,0,0,0c0,0,0,0,0,0c-0.1,0-0.1,0.1-0.2,0.1c-0.1,0-0.1,0.1-0.2,0.1c-0.1,0.1-0.2,0.1-0.3,0.2c-0.1,0.1-0.2,0.2-0.3,0.3
					c-0.1,0.1-0.2,0.2-0.3,0.3c-0.2,0.2-0.3,0.4-0.5,0.6c-0.2,0.2-0.3,0.5-0.5,0.7c-0.2,0.2-0.3,0.5-0.5,0.7
					c-0.1,0.2-0.3,0.5-0.5,0.8c-0.2,0.2-0.3,0.5-0.5,0.7c-0.1,0.1-0.1,0.3-0.2,0.4c0,0.1-0.1,0.1-0.1,0.2c0,0.1,0,0.1-0.1,0.2
					c-0.1,0.1-0.1,0.2-0.2,0.4c-0.1,0.1-0.2,0.3-0.2,0.4c-0.1,0.1-0.1,0.3-0.2,0.4c-0.1,0.1-0.1,0.3-0.2,0.4
					c-0.2,0.3-0.3,0.6-0.4,0.8c-0.1,0.3-0.2,0.5-0.4,0.8c-0.1,0.3-0.2,0.5-0.4,0.8C111.2,19.5,111,19.8,110.9,20z"/>
			</g>
		</g>
		<g>
			<g>
				<path class="st0" d="M134.3,38.3c-0.3,0.3-0.6,0.5-0.9,0.6c-0.3,0.2-0.6,0.4-1,0.6c-0.3,0.2-0.7,0.3-1,0.5
					c-0.2,0.1-0.3,0.1-0.5,0.2c-0.2,0.1-0.4,0.1-0.6,0.2c-0.4,0.1-0.8,0.1-1.1,0.1c-0.4,0-0.8,0-1.2-0.1c0,0-0.1,0-0.1,0
					c-0.2,0.2-0.4,0.4-0.7,0.6c-0.6,0.5-1.1,1-1.7,1.4c-0.3,0.2-0.6,0.4-1,0.6c-0.3,0.2-0.7,0.3-1,0.5c-0.2,0.1-0.4,0.1-0.5,0.2
					c-0.2,0.1-0.4,0.1-0.6,0.2c-0.1,0-0.2,0-0.3,0c-0.1,0-0.2,0-0.3,0c-0.1,0.1-0.3,0.1-0.6,0.1c-0.1,0-0.2,0-0.3,0
					c-0.1,0-0.2,0-0.3,0c-0.1,0-0.2,0-0.3,0c-0.1,0-0.2,0-0.3,0c0,0-0.1,0-0.1,0c0,0,0,0-0.1,0c0,0,0,0,0,0c0,0,0,0,0,0
					c-0.1,0-0.2,0-0.3,0c-0.1,0-0.2-0.1-0.3-0.1c-0.1,0-0.2-0.1-0.3-0.1c-0.4-0.2-0.7-0.4-1.1-0.6c-0.2-0.1-0.3-0.3-0.4-0.5
					c-0.1-0.2-0.3-0.4-0.4-0.6c-0.2-0.4-0.4-0.8-0.4-1.3c0-0.2-0.1-0.5-0.1-0.7c0-0.2,0-0.4,0-0.7c0-0.4,0-0.8,0.1-1.3
					c0-0.2,0.1-0.4,0.1-0.6c0.1-0.2,0.1-0.4,0.1-0.6c0.2-0.8,0.5-1.5,0.8-2.2c0.2-0.4,0.3-0.7,0.5-1.1c0.2-0.3,0.4-0.7,0.6-1
					c0.4-0.6,0.8-1.3,1.3-1.9c0.4-0.6,1-1.2,1.5-1.8c0.3-0.3,0.6-0.6,0.9-0.9c0.3-0.3,0.6-0.5,1-0.8c0.2-0.1,0.3-0.3,0.5-0.4
					c0.2-0.1,0.4-0.2,0.6-0.3c0.4-0.2,0.8-0.5,1.3-0.7c0.5-0.2,1-0.4,1.6-0.4c0.1,0,0.3-0.1,0.4-0.1c0.1,0,0.3,0,0.4,0
					c0.2,0,0.3,0,0.5,0c0.1,0,0.2,0,0.2,0.1c0,0,0,0,0.1,0c0,0,0,0,0.1,0c0,0,0,0,0.1,0c0,0,0,0,0,0c0.4,0.1,0.8,0.3,1.1,0.6
					c0.3,0.3,0.5,0.6,0.6,1.1c0.3,0,0.7,0.1,1.1,0.2c0.1,0.1,0.2,0.1,0.3,0.1c0.1,0,0.2,0.1,0.4,0.2c0.2,0.2,0.4,0.4,0.6,0.5
					c0.2,0.2,0.3,0.4,0.4,0.7c0.1,0.3,0.1,0.5,0.2,0.7c0,0.2,0.1,0.5,0,0.7c0,0.2,0,0.4-0.1,0.7c0,0.2-0.1,0.4-0.2,0.6
					c-0.1,0.2-0.1,0.4-0.2,0.6c-0.1,0.4-0.3,0.7-0.4,1.1c-0.2,0.4-0.4,0.7-0.6,1c-0.4,0.7-0.8,1.3-1.2,1.9c-0.2,0.3-0.5,0.6-0.7,0.9
					c-0.2,0.3-0.5,0.6-0.7,0.9c-0.1,0.1-0.2,0.2-0.3,0.3c-0.1,0.1-0.2,0.2-0.3,0.3c0.1,0,0.2,0,0.3,0c0.1,0,0.2,0,0.3,0
					c0.1,0,0.3,0,0.4,0c0.1,0,0.3,0,0.4-0.1c0.3-0.1,0.6-0.1,0.9-0.2c0.3-0.1,0.6-0.2,0.9-0.3c0.1-0.1,0.3-0.1,0.4-0.2
					c0.1-0.1,0.3-0.1,0.4-0.2c0.2-0.1,0.3-0.1,0.5-0.2c0.2-0.1,0.3-0.2,0.4-0.2c0.1-0.1,0.3-0.1,0.4-0.1c0.1,0,0.2,0.1,0.2,0.2
					c0.1,0.3,0,0.5-0.2,0.6c-0.2,0.1-0.3,0.2-0.5,0.3C134.6,38.1,134.5,38.2,134.3,38.3z M125.6,40c0.3-0.2,0.5-0.3,0.8-0.5
					c0,0,0,0,0,0c-0.1-0.1-0.1-0.1-0.2-0.2c0-0.1-0.1-0.1-0.2-0.2c-0.2-0.1-0.3-0.3-0.4-0.5c-0.1-0.2-0.2-0.3-0.3-0.5
					c-0.4-0.7-0.7-1.5-0.9-2.3c0,0,0-0.1-0.1-0.3c0,0,0-0.1,0-0.1c0,0,0,0,0,0c0,0,0,0,0,0c0,0,0,0,0,0c0,0,0,0,0-0.1c0,0,0,0,0-0.1
					c0-0.1,0-0.2,0-0.3c0-0.1,0-0.2,0-0.3c0-0.4,0-0.9,0.1-1.3c0.1-0.4,0.2-0.8,0.3-1.3c0-0.1,0.1-0.2,0.1-0.4c0,0-0.1,0-0.1,0
					c0,0,0,0-0.1,0.1c-0.5,0.4-0.9,0.8-1.3,1.3c-0.8,0.9-1.6,1.9-2.2,2.9c-0.1,0.3-0.3,0.5-0.4,0.8c-0.1,0.3-0.2,0.5-0.4,0.8
					c-0.2,0.6-0.4,1.1-0.4,1.5c0,0.2-0.1,0.4-0.1,0.6c0,0.1,0,0.2,0,0.3c0,0.1,0,0.2,0,0.2c0,0.1,0.1,0.1,0.1,0.2
					c0,0.1,0.1,0.1,0.1,0.2c0.1,0.1,0.2,0.2,0.4,0.3c0.1,0.1,0.2,0.1,0.3,0.1c0.1,0,0.1,0,0.1,0.1c0,0,0.1,0,0.1,0c0,0,0.1,0,0.1,0
					c0.1,0,0.2,0.1,0.3,0.1c0,0,0.1,0,0.2,0c0.1,0,0.1,0,0.2,0c0.5,0,1,0,1.5-0.1c0.5-0.2,1.1-0.3,1.6-0.6c0.1-0.1,0.3-0.1,0.4-0.2
					C125.3,40.2,125.5,40.1,125.6,40z M131.5,29.6c-0.4-0.1-0.7,0-1.1,0.4c-0.1,0-0.1,0.1-0.3,0.2c0,0-0.1,0.1-0.1,0.1
					c0,0-0.1,0.1-0.1,0.1c-0.2,0.2-0.3,0.4-0.4,0.6c-0.1,0.2-0.2,0.4-0.4,0.6c-0.1,0.2-0.2,0.4-0.3,0.6c-0.1,0.1-0.1,0.2-0.2,0.3
					c-0.1,0.1-0.1,0.2-0.1,0.3c0,0.1-0.1,0.2-0.1,0.3c0,0.1-0.1,0.2-0.1,0.4c0,0.1,0,0.2-0.1,0.3c0,0.1-0.1,0.2-0.1,0.4
					c0,0.1-0.1,0.2-0.1,0.3c0,0,0,0.1,0,0.1c0,0,0,0,0,0c0,0,0,0,0,0c0,0,0,0,0,0c0,0,0,0.1,0,0.1c0,0,0,0.1,0,0.1c0,0.5,0,1,0,1.5
					c0,0.1,0,0.2,0.1,0.3c0,0.1,0.1,0.2,0.1,0.3c0.1,0.1,0.1,0.2,0.1,0.3c0,0,0,0.1,0.1,0.1c0.1-0.1,0.2-0.3,0.4-0.4
					c0.1-0.1,0.2-0.3,0.3-0.4c0.2-0.3,0.4-0.5,0.6-0.8c0.2-0.3,0.4-0.6,0.6-0.8c0.2-0.3,0.3-0.6,0.5-0.8c0.2-0.3,0.3-0.6,0.5-0.9
					c0.1-0.3,0.3-0.6,0.4-0.9c0.1-0.3,0.2-0.6,0.3-0.9c0.1-0.3,0.1-0.5,0.1-0.8c0-0.3,0-0.5-0.1-0.7c-0.1-0.1-0.1-0.2-0.1-0.2
					c0-0.1,0-0.1-0.1-0.1c0,0,0,0,0,0c0,0,0,0-0.1,0C131.6,29.6,131.5,29.6,131.5,29.6z"/>
			</g>
		</g>
		<g>
			<g>
				<path class="st0" d="M148.1,43.7c-0.3,0.2-0.7,0.4-1,0.5c-0.3,0.2-0.7,0.3-1,0.5c-0.3,0.1-0.7,0.3-1.1,0.4
					c-0.2,0-0.4,0.1-0.5,0.1c-0.2,0-0.4,0.1-0.6,0.1c-0.4,0.1-0.8,0.1-1.2,0c-0.4,0-0.8-0.1-1.1-0.3c0,0-0.1,0-0.1-0.1
					c-0.2,0.2-0.5,0.4-0.7,0.6c-0.6,0.5-1.2,0.9-1.9,1.2c-0.3,0.2-0.7,0.4-1,0.5c-0.3,0.2-0.7,0.3-1,0.4c-0.2,0-0.4,0.1-0.5,0.1
					c-0.2,0.1-0.4,0.1-0.6,0.1c-0.1,0-0.2,0-0.3,0c-0.1,0-0.2,0-0.3,0c-0.2,0-0.3,0.1-0.6,0c-0.1,0-0.2,0-0.3,0c-0.1,0-0.2,0-0.3,0
					c-0.1,0-0.2,0-0.3-0.1c-0.1,0-0.2,0-0.3-0.1c0,0-0.1,0-0.1,0c0,0-0.1,0-0.1,0c0,0,0,0,0,0c0,0,0,0,0,0c-0.1,0-0.2,0-0.3-0.1
					c-0.1-0.1-0.2-0.1-0.3-0.1c-0.1,0-0.2-0.1-0.3-0.1c-0.4-0.2-0.7-0.5-1-0.8c-0.1-0.2-0.3-0.4-0.4-0.6c-0.1-0.2-0.2-0.4-0.3-0.6
					c-0.2-0.4-0.3-0.9-0.3-1.4c0-0.3,0-0.5,0-0.7c0-0.2,0-0.4,0.1-0.7c0-0.4,0.1-0.8,0.2-1.3c0.1-0.2,0.1-0.4,0.2-0.6
					c0.1-0.2,0.1-0.4,0.2-0.6c0.3-0.8,0.7-1.5,1.1-2.2c0.2-0.4,0.4-0.7,0.6-1c0.2-0.3,0.4-0.7,0.7-1c0.5-0.6,1-1.2,1.5-1.9
					c0.5-0.6,1.1-1.2,1.8-1.7c0.3-0.3,0.6-0.6,1-0.8c0.3-0.2,0.7-0.5,1.1-0.7c0.2-0.1,0.4-0.2,0.6-0.3c0.2-0.1,0.4-0.2,0.6-0.3
					c0.4-0.2,0.9-0.4,1.4-0.5c0.5-0.2,1-0.3,1.6-0.3c0.2,0,0.3,0,0.4,0c0.1,0,0.3,0,0.4,0c0.2,0,0.3,0,0.5,0.1
					c0.1,0,0.2,0.1,0.2,0.1c0,0,0,0,0.1,0c0,0,0,0,0.1,0c0,0,0,0,0.1,0c0,0,0,0,0,0c0.4,0.1,0.8,0.4,1.1,0.7
					c0.3,0.3,0.4,0.7,0.5,1.2c0.3,0.1,0.7,0.2,1.1,0.3c0.1,0.1,0.2,0.1,0.3,0.2c0.1,0.1,0.2,0.1,0.3,0.2c0.2,0.2,0.4,0.4,0.5,0.6
					c0.1,0.2,0.3,0.5,0.3,0.8c0,0.3,0.1,0.5,0.1,0.8s0,0.5,0,0.7c0,0.2-0.1,0.5-0.2,0.7c-0.1,0.2-0.1,0.4-0.2,0.6
					c-0.1,0.2-0.2,0.4-0.3,0.6c-0.2,0.4-0.4,0.7-0.6,1.1c-0.2,0.3-0.4,0.7-0.7,1c-0.5,0.7-0.9,1.3-1.4,1.9c-0.3,0.3-0.5,0.6-0.8,0.9
					c-0.2,0.3-0.5,0.6-0.8,0.8c-0.1,0.1-0.2,0.2-0.3,0.3c-0.1,0.1-0.2,0.2-0.3,0.3c0.1,0,0.2,0,0.3,0.1c0.1,0,0.2,0,0.3,0
					c0.1,0,0.3,0,0.4,0c0.1,0,0.3,0,0.4,0c0.3,0,0.6-0.1,0.9-0.1c0.3-0.1,0.6-0.1,0.9-0.2c0.2-0.1,0.3-0.1,0.5-0.2
					c0.2-0.1,0.3-0.1,0.5-0.2c0.2-0.1,0.3-0.1,0.5-0.2c0.2-0.1,0.3-0.1,0.5-0.2c0.1-0.1,0.3-0.1,0.4,0c0.1,0,0.2,0.1,0.2,0.3
					c0.1,0.3,0,0.5-0.2,0.7c-0.2,0.1-0.3,0.2-0.5,0.3C148.5,43.5,148.3,43.6,148.1,43.7z M139.3,44.6c0.3-0.1,0.5-0.3,0.8-0.5
					c0,0,0,0,0,0c-0.1-0.1-0.1-0.1-0.2-0.2c0-0.1-0.1-0.1-0.2-0.2c-0.1-0.2-0.3-0.3-0.4-0.5c-0.1-0.2-0.2-0.4-0.3-0.5
					c-0.3-0.8-0.5-1.6-0.6-2.5c0-0.1,0-0.2-0.1-0.3c0,0,0-0.1,0-0.1c0,0,0,0,0,0c0,0,0,0,0,0c0,0,0,0,0,0c0,0,0,0,0-0.1
					c0,0,0-0.1,0-0.1c0-0.1,0-0.2,0-0.4c0-0.1,0-0.2,0-0.4c0-0.5,0.1-0.9,0.2-1.4c0.1-0.4,0.2-0.9,0.5-1.3c0.1-0.1,0.1-0.2,0.2-0.4
					c0,0-0.1,0-0.1,0c0,0,0,0-0.1,0.1c-0.5,0.4-1,0.8-1.5,1.2c-0.9,0.8-1.8,1.8-2.5,2.8c-0.2,0.3-0.3,0.5-0.5,0.8
					c-0.2,0.3-0.3,0.5-0.4,0.8c-0.3,0.6-0.5,1-0.6,1.5c-0.1,0.2-0.1,0.4-0.1,0.7c0,0.1,0,0.2,0,0.3c0,0.1,0,0.2,0,0.2
					c0,0.1,0.1,0.2,0.1,0.2c0,0.1,0.1,0.1,0.1,0.2c0.1,0.1,0.2,0.2,0.3,0.4c0.1,0.1,0.2,0.1,0.3,0.2c0.1,0,0.1,0,0.1,0.1
					c0,0,0.1,0,0.1,0c0,0,0.1,0,0.1,0c0.1,0,0.2,0.1,0.3,0.1c0.1,0,0.1,0,0.2,0c0.1,0,0.1,0,0.2,0c0.5,0.1,0.9,0.1,1.5,0
					c0.6-0.1,1.1-0.2,1.6-0.4c0.1-0.1,0.3-0.1,0.4-0.2C139,44.7,139.1,44.6,139.3,44.6z M146.2,34.3c-0.4-0.1-0.7,0-1.1,0.3
					c-0.1,0-0.2,0.1-0.3,0.2c0,0-0.1,0.1-0.1,0.1c0,0-0.1,0.1-0.1,0.1c-0.2,0.2-0.4,0.4-0.5,0.6c-0.1,0.2-0.3,0.4-0.4,0.6
					c-0.1,0.2-0.3,0.4-0.4,0.6c-0.1,0.1-0.1,0.2-0.2,0.3c-0.1,0.1-0.1,0.2-0.2,0.3c-0.1,0.1-0.1,0.2-0.2,0.3c0,0.1-0.1,0.2-0.2,0.4
					c0,0.1-0.1,0.2-0.1,0.3c-0.1,0.1-0.1,0.2-0.1,0.4c0,0.1-0.1,0.2-0.1,0.3c0,0,0,0.1,0,0.1c0,0,0,0,0,0c0,0,0,0,0,0c0,0,0,0,0,0
					c0,0,0,0.1,0,0.1c0,0,0,0.1,0,0.1c-0.1,0.5-0.1,1-0.1,1.5c0,0.1,0,0.2,0,0.3c0,0.1,0,0.2,0.1,0.4c0,0.1,0.1,0.2,0.1,0.3
					c0,0,0,0.1,0.1,0.1c0.1-0.1,0.3-0.3,0.4-0.4c0.1-0.1,0.3-0.3,0.4-0.4c0.2-0.3,0.5-0.5,0.7-0.8c0.2-0.3,0.4-0.5,0.7-0.8
					c0.2-0.3,0.4-0.5,0.6-0.8c0.2-0.3,0.4-0.6,0.6-0.9c0.2-0.3,0.3-0.6,0.5-0.9c0.1-0.3,0.3-0.6,0.4-0.9c0.1-0.3,0.2-0.6,0.2-0.8
					c0-0.3,0.1-0.6,0-0.7c0-0.1-0.1-0.2-0.1-0.2c0-0.1,0-0.1-0.1-0.1c0,0,0,0-0.1,0c0,0,0,0-0.1-0.1
					C146.4,34.4,146.3,34.3,146.2,34.3z"/>
			</g>
		</g>
		<g>
			<g>
				<path class="st0" d="M154.5,49.4c-0.3,0.3-0.6,0.5-1,0.8c-0.3,0.3-0.6,0.5-1,0.8c-0.3,0.2-0.7,0.5-1,0.7
					c-0.3,0.2-0.7,0.4-1.1,0.6c-0.2,0.1-0.3,0.2-0.5,0.3c-0.2,0.1-0.4,0.2-0.6,0.2c-0.2,0.1-0.4,0.1-0.6,0.2
					c-0.2,0.1-0.4,0.1-0.6,0.2c-0.5,0.1-0.9,0.1-1.3,0.1c-0.2,0-0.4,0-0.7-0.1c-0.1,0-0.1,0-0.2,0c-0.1,0-0.1,0-0.2,0
					c-0.1,0-0.1,0-0.2-0.1c0,0,0,0-0.1,0c0,0,0,0,0,0c0,0,0,0,0,0c0,0,0,0-0.1,0c-0.3-0.1-0.5-0.3-0.7-0.6c-0.1-0.1-0.2-0.3-0.3-0.4
					c-0.1-0.1-0.1-0.3-0.2-0.4c0-0.1-0.1-0.3-0.1-0.4c0-0.1-0.1-0.3-0.1-0.4c0-0.1,0-0.3,0-0.4c0-0.1,0-0.3,0-0.4c0-0.1,0-0.3,0-0.4
					c0-0.1,0-0.2,0-0.4c0-0.1,0-0.2,0-0.3c0-0.1,0-0.2,0-0.3c0.1-0.2,0.1-0.4,0.2-0.7c0.1-0.2,0.1-0.4,0.2-0.6
					c0.2-0.8,0.5-1.7,0.8-2.4c0.2-0.4,0.3-0.8,0.5-1.1c0.2-0.4,0.3-0.8,0.5-1.1c0.2-0.4,0.4-0.7,0.6-1.1c0.1-0.2,0.2-0.4,0.3-0.5
					c0.1-0.2,0.2-0.4,0.3-0.5c0.1-0.1,0.1-0.2,0.2-0.3c0.1-0.1,0.1-0.2,0.2-0.3c0.1-0.2,0.2-0.5,0.4-0.7c0.3-0.5,0.6-1,0.9-1.4
					c0.3-0.5,0.6-0.9,0.9-1.4c0.9-1.4,1.9-2.7,2.9-4c1-1.3,2.2-2.6,3.4-3.8c0.3-0.3,0.6-0.6,0.9-0.9c0.3-0.3,0.6-0.6,1-0.9
					c0.2-0.1,0.3-0.3,0.5-0.5c0.2-0.2,0.3-0.3,0.5-0.4c0.2-0.1,0.3-0.3,0.5-0.4c0.2-0.2,0.3-0.3,0.5-0.4c0.7-0.6,1.5-1.1,2.2-1.5
					c0.8-0.5,1.6-0.9,2.6-1.2c0.1,0,0.3-0.1,0.4-0.1c0.1,0,0.2-0.1,0.4-0.1c0.1,0,0.3-0.1,0.4-0.1c0.1,0,0.3,0,0.4-0.1
					c0.1,0,0.3,0,0.4,0c0.1,0,0.3,0,0.4,0c0.3,0,0.6,0,0.9,0.1c0.1,0,0.2,0,0.2,0.1c0.1,0,0.1,0.1,0.2,0.1c0.1,0,0.1,0.1,0.2,0.1
					c0,0,0,0,0,0c0,0,0,0,0,0c0,0,0,0,0.1,0c0,0,0.1,0,0.1,0.1c0.1,0.1,0.2,0.2,0.4,0.4c0.1,0.1,0.2,0.3,0.3,0.5c0,0.1,0,0.2,0,0.3
					c0,0.1,0,0.2,0,0.3c0,0.2,0,0.3-0.1,0.5c-0.1,0.3-0.2,0.5-0.3,0.8c-0.1,0.2-0.3,0.4-0.4,0.6c-0.1,0.2-0.3,0.4-0.4,0.5
					c-0.2,0.2-0.3,0.4-0.5,0.5c-0.1,0.2-0.3,0.3-0.4,0.5c-0.1,0.2-0.3,0.3-0.5,0.5c-0.2,0.1-0.3,0.3-0.5,0.4
					c-0.1,0.1-0.2,0.2-0.2,0.2c-0.1,0.1-0.1,0.1-0.2,0.2c-0.2,0.1-0.3,0.3-0.5,0.4c-0.3,0.3-0.6,0.6-0.9,0.9c-0.3,0.3-0.6,0.6-1,0.8
					c-0.2,0.1-0.3,0.3-0.5,0.4c-0.2,0.1-0.3,0.3-0.5,0.4c-0.3,0.3-0.6,0.6-1,0.8c-1.3,1.1-2.5,2.2-3.8,3.2c-1.3,1.1-2.5,2.1-3.8,3.2
					c-0.3,0.3-0.7,0.5-1,0.8c-0.3,0.3-0.6,0.5-1,0.8c-0.2,0.1-0.4,0.2-0.5,0.4c-0.2,0.1-0.3,0.3-0.5,0.4c-0.2,0.1-0.3,0.2-0.5,0.4
					c-0.1,0.1-0.2,0.1-0.2,0.2c-0.1,0.1-0.1,0.2-0.2,0.2c0,0.1-0.1,0.2-0.2,0.3c-0.1,0.2-0.2,0.3-0.3,0.5c-0.1,0.2-0.2,0.3-0.3,0.5
					c-0.1,0.2-0.2,0.3-0.3,0.5c-0.1,0.2-0.2,0.3-0.3,0.5c-0.2,0.3-0.4,0.7-0.6,1c-0.2,0.3-0.4,0.6-0.5,1c-0.2,0.3-0.3,0.6-0.5,0.9
					c-0.1,0.2-0.2,0.3-0.2,0.5c-0.1,0.2-0.1,0.3-0.2,0.5c-0.1,0.2-0.1,0.3-0.2,0.5c-0.1,0.1-0.1,0.3-0.2,0.5c0,0.2-0.1,0.3-0.1,0.4
					c0,0.1-0.1,0.3-0.1,0.4c0,0.2-0.1,0.3,0,0.3c0,0.1,0,0.2,0,0.2c0,0.1,0,0.1,0,0.1c0,0,0,0,0,0.1c0,0,0,0,0,0c0,0,0,0,0.1,0
					c0,0,0.1,0,0.1,0.1c0.1,0.1,0.2,0.1,0.3,0.1c0.1,0,0.4,0.1,0.7,0c0.3,0,0.6-0.1,0.8-0.2c0.2-0.1,0.3-0.1,0.5-0.1
					c0.1,0,0.3-0.1,0.4-0.1c0.3-0.1,0.6-0.3,0.9-0.4c0.3-0.2,0.6-0.3,0.9-0.5c0.3-0.2,0.6-0.4,1-0.6c0.3-0.2,0.6-0.4,0.9-0.6
					c0.2-0.1,0.3-0.2,0.5-0.3c0.1-0.1,0.3-0.2,0.5-0.3c0.1-0.1,0.2-0.1,0.2-0.2c0.1-0.1,0.1-0.1,0.2-0.2c0.1-0.1,0.2-0.1,0.2-0.2
					c0.1-0.1,0.1-0.1,0.2-0.2c0,0,0,0,0,0c0.2-0.1,0.3-0.2,0.5-0.2c0.2,0,0.3,0.1,0.4,0.3c0.2,0.3,0.1,0.6-0.2,0.9
					c0,0-0.1,0.1-0.1,0.1c0,0-0.1,0.1-0.1,0.1c0,0-0.1,0.1-0.2,0.2c-0.1,0.1-0.2,0.2-0.2,0.2c-0.1,0.1-0.1,0.1-0.2,0.2
					C155.1,48.8,154.8,49.1,154.5,49.4z M156.5,34.5c-0.1,0.1-0.3,0.3-0.4,0.5c0.3-0.2,0.6-0.3,0.8-0.5c0.3-0.2,0.5-0.4,0.8-0.5
					c1.4-0.9,2.7-1.9,4-2.9c1.3-1,2.5-2,3.8-3.2c0.1-0.1,0.2-0.1,0.2-0.2c0.1-0.1,0.1-0.1,0.2-0.2c0.1-0.1,0.2-0.1,0.2-0.2
					c0.1-0.1,0.1-0.1,0.2-0.2c0.1-0.1,0.3-0.3,0.4-0.4c0.1-0.1,0.3-0.3,0.4-0.4c0.1-0.1,0.3-0.3,0.4-0.4c0.1-0.2,0.2-0.3,0.3-0.5
					c0.1-0.2,0.2-0.3,0.3-0.5c0-0.1,0.1-0.2,0.1-0.2c0.1-0.1,0.1-0.1,0.1-0.2c0.1-0.2,0.1-0.3,0.1-0.4c0,0,0-0.1,0-0.1c0,0,0,0,0,0
					c0,0,0,0,0,0c0,0,0,0,0,0c0,0,0,0,0,0c0,0,0,0-0.1,0c0,0,0,0,0,0c0,0,0,0,0,0c0,0-0.1,0-0.1,0c-0.1,0-0.2,0-0.3,0.1
					c-0.1,0-0.1,0-0.2,0.1c-0.1,0-0.1,0-0.2,0.1c-0.1,0.1-0.3,0.2-0.4,0.2c-0.1,0.1-0.3,0.2-0.4,0.3c-0.3,0.2-0.6,0.4-0.9,0.7
					c-0.2,0.1-0.3,0.3-0.5,0.4c-0.1,0.1-0.3,0.2-0.4,0.4c-0.1,0.1-0.3,0.3-0.4,0.4c-0.1,0.1-0.3,0.2-0.5,0.4
					c-0.3,0.3-0.6,0.5-0.9,0.8c-0.6,0.5-1.2,1.1-1.7,1.7c-0.6,0.6-1.1,1.1-1.7,1.7C158.5,32.1,157.5,33.3,156.5,34.5z"/>
			</g>
		</g>
		<g>
			<g>
				<path class="st0" d="M9.1,35.6c0,0.5,1.1-11.7,26.3-16.3C59.8,16.1,76.8,4.5,78.3,2c0,0,1.3-2.3-4.2,2.2
					c-5.6,4.4-23.2,10-38.5,12.1c-15.4,2-26.1,6.1-30.3,15.7C5.2,32,2.3,40.4,9.1,35.6z"/>
			</g>
		</g>
		<g>
			<g>
				<path class="st0" d="M70.3,37.3c0,0,2.9-3.2,6-4.3c0,0,0.4-0.6-0.6-0.6c-1,0-5.6,2-7.9,4.8C67.9,37.2,65.2,40.8,70.3,37.3z"/>
			</g>
		</g>
		<g>
			<g>
				<path class="st0" d="M102.4,40.9c0.1,0.2,8.6,9.4,32.1,15.3c0,0,0.9,0.8-0.3,0.6c-1.6-0.1-22.1-3-37.1-17.7
					c0.6-0.6,1.3-1.1,1.9-1.7c0.1,0.1,0.2,0.3,0.3,0.4c0,0-0.6,1.8-0.2,2.5C99.2,40.3,100.1,42.1,102.4,40.9z"/>
			</g>
		</g>
		<g>
			<g>
				<path class="st0" d="M96.5,35.2c0,0-4.2-3-6.6-3.4c-0.1,0.2-0.1,0.5-0.2,0.7c1.9,1.2,3.7,2.4,5.5,3.6
					C95.1,36.1,96.1,35.9,96.5,35.2z"/>
			</g>
		</g>
		<g>
			<g>
				<path class="st0" d="M86.1,31.6c-0.6,0-1.2,0-1.8-0.1c-0.2-0.2-0.4-0.5-0.6-0.7c0.8,0,1.7,0,2.5,0.1
					C86.2,31.2,86.2,31.4,86.1,31.6z"/>
			</g>
		</g>
	</g>
</g>
<g>
	<polygon class="st0" points="63,65.2 62.3,67.1 63.6,67.1 63,65.2 	"/>
	<path class="st0" d="M124.3,61.5h-14.1H63.5H49.3l1.8,5.3L49.3,72h14.1H86h1.7h22.5h14.1l-1.8-5.3L124.3,61.5z M64.3,68.8l-0.4-1.2
		h-1.7l-0.5,1.2h-0.5l1.6-4h0.6l1.6,4H64.3z M74.4,68.8H74l-0.1-0.5c-0.2,0.2-0.4,0.4-0.6,0.5c-0.2,0.1-0.5,0.1-0.7,0.1
		c-0.3,0-0.6-0.1-0.8-0.2c-0.2-0.1-0.4-0.3-0.6-0.4c-0.2-0.2-0.3-0.4-0.4-0.6c-0.1-0.2-0.1-0.5-0.1-0.8c0-0.3,0-0.6,0.1-0.8
		c0.1-0.3,0.2-0.5,0.4-0.7c0.2-0.2,0.4-0.4,0.6-0.5c0.2-0.1,0.5-0.2,0.8-0.2c0.2,0,0.4,0,0.6,0.1c0.2,0.1,0.4,0.1,0.5,0.2
		c0.2,0.1,0.3,0.2,0.4,0.4c0.1,0.2,0.2,0.4,0.2,0.6h-0.5c0-0.2-0.1-0.3-0.1-0.4c-0.1-0.1-0.2-0.2-0.3-0.3c-0.1-0.1-0.2-0.1-0.4-0.2
		c-0.1,0-0.3-0.1-0.4-0.1c-0.2,0-0.5,0-0.6,0.1c-0.2,0.1-0.3,0.2-0.4,0.4c-0.1,0.2-0.2,0.3-0.2,0.5c-0.1,0.2-0.1,0.4-0.1,0.6
		c0,0.2,0,0.4,0.1,0.6c0.1,0.2,0.1,0.4,0.3,0.5c0.1,0.1,0.3,0.3,0.4,0.4c0.2,0.1,0.4,0.1,0.6,0.1c0.2,0,0.4,0,0.6-0.1
		c0.2-0.1,0.3-0.2,0.4-0.3c0.1-0.1,0.2-0.3,0.3-0.4c0.1-0.2,0.1-0.3,0.1-0.5h-1.3v-0.5h1.8V68.8z M83.6,68.8h-2.8v-4h2.8v0.5h-2.2
		v1.3h2.1v0.5h-2.1v1.4h2.3V68.8z M93.1,68.8h-0.6l-2.1-3.2h0v3.2h-0.5v-4h0.6l2.1,3.3h0v-3.3h0.5V68.8z M102.4,68.4
		c-0.3,0.3-0.7,0.4-1.2,0.4c-0.3,0-0.6-0.1-0.8-0.2c-0.2-0.1-0.4-0.3-0.6-0.4c-0.2-0.2-0.3-0.4-0.3-0.7c-0.1-0.3-0.1-0.5-0.1-0.8
		s0-0.6,0.1-0.8c0.1-0.3,0.2-0.5,0.4-0.7c0.2-0.2,0.4-0.3,0.6-0.5c0.2-0.1,0.5-0.2,0.8-0.2c0.2,0,0.4,0,0.6,0.1
		c0.2,0.1,0.4,0.1,0.5,0.2c0.1,0.1,0.3,0.2,0.4,0.4c0.1,0.2,0.2,0.4,0.2,0.6h-0.5c-0.1-0.3-0.2-0.5-0.4-0.6
		c-0.2-0.1-0.4-0.2-0.7-0.2c-0.2,0-0.4,0-0.6,0.1c-0.2,0.1-0.3,0.2-0.4,0.4s-0.2,0.3-0.2,0.5c-0.1,0.2-0.1,0.4-0.1,0.6
		c0,0.2,0,0.4,0.1,0.7c0.1,0.2,0.1,0.4,0.2,0.5s0.3,0.3,0.4,0.4c0.2,0.1,0.4,0.1,0.6,0.1c0.2,0,0.3,0,0.5-0.1
		c0.1-0.1,0.3-0.1,0.4-0.2c0.1-0.1,0.2-0.2,0.2-0.4c0.1-0.1,0.1-0.3,0.1-0.5h0.5C102.9,67.7,102.7,68.1,102.4,68.4z M110.9,67.1v1.6
		h-0.5v-1.6l-1.6-2.4h0.6l1.2,1.9l1.2-1.9h0.6L110.9,67.1z"/>
</g>
</svg>
